<?xml version="1.0" encoding="utf-8"?>
<!-- Generator: Adobe Illustrator 24.3.0, SVG Export Plug-In . SVG Version: 6.00 Build 0)  -->
<svg version="1.1" id="Layer_1" xmlns="http://www.w3.org/2000/svg" xmlns:xlink="http://www.w3.org/1999/xlink" x="0px" y="0px"
	 viewBox="0 0 800 600" style="enable-background:new 0 0 800 600;" xml:space="preserve">
<style type="text/css">
	.st0{opacity:0.25;fill:#00A651;}
	.st1{fill:#FFFFFF;}
	.st2{fill-rule:evenodd;clip-rule:evenodd;fill:#FFFFFF;}
</style>
<g>
	<g>
		<circle class="st0" cx="493.03" cy="276.03" r="156.29"/>
		<g>
			<circle class="st0" cx="336.74" cy="276.03" r="156.29"/>
		</g>
	</g>
	<g>
		<path class="st1" d="M199.54,377.54c-21.25,0-40.5-3.45-57.22-10.25c-16.6-6.75-29.83-16.83-39.3-29.98
			c-9.45-13.09-14.25-29.59-14.25-49.04c0-19.44,4.8-36.01,14.25-49.22c9.48-13.26,22.71-23.46,39.31-30.33
			c16.7-6.91,35.95-10.43,57.21-10.43c20.34,0,38,2.86,52.49,8.5c14.39,5.6,25.91,13.75,34.22,24.22
			c7.87,9.92,12.69,21.97,14.32,35.84H262.3c-4.24-11.51-11.84-20.66-22.58-27.2c-11.09-6.75-24.61-10.17-40.18-10.17
			c-12.43,0-23.91,2.19-34.1,6.51c-10.28,4.35-18.64,10.93-24.82,19.54c-6.22,8.65-9.37,19.66-9.37,32.73
			c0,12.83,3.09,23.72,9.18,32.36c6.07,8.62,14.43,15.15,24.86,19.39c10.29,4.19,21.81,6.31,34.25,6.31
			c16.76,0,30.71-3.42,41.44-10.18c10.42-6.56,17.72-15.93,21.72-27.89h38.25c-1.43,13.9-6.14,26.07-14.01,36.22
			c-8.31,10.7-19.94,18.96-34.55,24.55C237.66,374.68,219.87,377.54,199.54,377.54z"/>
		<polygon class="st1" points="690.49,373.48 635.51,311.67 583.25,373.48 532.78,373.48 612.84,286.88 532.85,202.35 583.3,202.35 
			636.56,260.15 685.94,202.35 736.04,202.35 659.26,284.78 741,373.48 		"/>
		<path class="st2" d="M516.69,157.88c-2.09-2.34-4.57-3.48-7.55-3.48c-2.08,0-4.46,0.55-7.07,1.64
			c-13.78,5.72-31.74,44.81-50.47,108.98c12.53-25.6,28.07-55.05,40.88-73.56h-0.06l10.19-16.63l-1.75,15.83
			c-2.2,12.54-5.63,26.43-7,31.82c-1.11,4.42-2.42,9.92-3.91,16.16c-9.14,38.34-24.42,102.49-42.36,126.95l-2.97,4.04l-2.64-4.27
			c-18.26-29.61-29.36-131.77-34.1-175.39c-0.6-5.52-1.1-10.07-1.48-13.37c-1.36-11.47-9.2-19.8-18.67-19.8
			c-2.87,0-5.78,0.77-8.63,2.28c-15.99,8.46-48.79,95.08-59.77,129.78c-16.83,53.15-37.06,114.32-62.38,176.69
			c35.38-57.19,70.64-121.3,97.49-177.63c4.28-8.93,8.25-18.56,12.25-28.67l13.78-43.58c0,0-0.08,1.82-0.17,4.7
			c-0.26,8.14-0.58,25.45,0.59,40.29c15.1,110.49,39.02,139.26,56.8,143.49c2.16,0.51,4.32,0.77,6.42,0.77c0,0,0,0,0.01,0
			c46.02-0.01,73.46-121.82,77.74-163.79l0.39-3.6C527.04,194.15,525.17,167.35,516.69,157.88z"/>
	</g>
</g>
</svg>
