<?xml version="1.0" encoding="utf-8"?>
<!-- Generator: Adobe Illustrator 24.3.0, SVG Export Plug-In . SVG Version: 6.00 Build 0)  -->
<svg version="1.1" id="Layer_1" xmlns="http://www.w3.org/2000/svg" xmlns:xlink="http://www.w3.org/1999/xlink" x="0px" y="0px"
	 viewBox="0 0 800 600" style="enable-background:new 0 0 800 600;" xml:space="preserve">
<style type="text/css">
	.st0{opacity:0.25;fill:#00A651;}
	.st1{fill:#FFFFFF;}
</style>
<g>
	<g>
		<circle class="st0" cx="396.62" cy="300" r="150.49"/>
		<g>
			<circle class="st0" cx="547.11" cy="300" r="150.49"/>
			<circle class="st0" cx="246.13" cy="300" r="150.49"/>
		</g>
	</g>
	<path class="st1" d="M555.77,252.86h4.42c5.02,0,9.1-4.07,9.1-9.1v0c0-5.02-4.07-9.1-9.1-9.1h-4.42c-5.02,0-9.1,4.07-9.1,9.1v0
		C546.68,248.79,550.75,252.86,555.77,252.86z"/>
	<g>
		<path class="st1" d="M182.17,383.07v-13.2h7.61c1.77,0,3.11,0.3,4.03,0.89c0.92,0.59,1.38,1.47,1.38,2.64
			c0,0.75-0.18,1.34-0.55,1.76c-0.37,0.43-0.89,0.74-1.56,0.95c-0.67,0.2-1.47,0.33-2.38,0.39l0.08-0.14
			c0.67,0.01,1.3,0.06,1.89,0.14c0.59,0.08,1.11,0.23,1.56,0.45c0.45,0.22,0.8,0.52,1.06,0.91c0.26,0.39,0.39,0.9,0.39,1.52
			c0,0.82-0.22,1.49-0.65,2.03c-0.44,0.54-1.04,0.94-1.82,1.22c-0.78,0.27-1.67,0.42-2.69,0.45H182.17z M184.89,375.46h4.8
			c0.86,0,1.52-0.13,1.98-0.38c0.46-0.25,0.69-0.68,0.69-1.3c0-0.61-0.23-1.04-0.69-1.3c-0.46-0.25-1.07-0.38-1.84-0.38h-4.94
			V375.46z M184.89,380.83h5.35c0.86,0,1.52-0.14,1.98-0.42c0.46-0.28,0.69-0.72,0.69-1.34c0-0.45-0.14-0.78-0.41-0.98
			c-0.27-0.21-0.63-0.33-1.08-0.38c-0.45-0.05-0.93-0.07-1.45-0.07h-5.08V380.83z"/>
		<path class="st1" d="M206.51,377.56v3.24h10.18v2.27h-12.9v-13.2h12.88v2.26h-10.16v3.28h8.33v2.14H206.51z"/>
		<path class="st1" d="M247.96,377.24v-7.37h2.71v7.65c0,0.87-0.13,1.63-0.38,2.28c-0.25,0.65-0.61,1.2-1.07,1.65
			c-0.46,0.45-1,0.81-1.62,1.09s-1.29,0.48-2.02,0.6c-0.73,0.12-1.49,0.18-2.3,0.18c-0.83,0-1.62-0.06-2.37-0.18
			c-0.75-0.12-1.43-0.33-2.05-0.6s-1.15-0.64-1.6-1.09c-0.45-0.45-0.8-1-1.05-1.65c-0.25-0.65-0.38-1.41-0.38-2.28v-7.65h2.71v7.37
			c0,1.03,0.2,1.82,0.61,2.35c0.41,0.54,0.97,0.91,1.68,1.1c0.71,0.2,1.53,0.3,2.44,0.3c0.89,0,1.68-0.1,2.38-0.3
			c0.7-0.2,1.26-0.56,1.67-1.1C247.75,379.06,247.96,378.27,247.96,377.24z"/>
		<path class="st1" d="M272.91,380.38l-0.86,0.35v-10.85h2.71v13.2h-2.71l-10.67-10.43l0.86-0.35v10.77h-2.71v-13.2h2.71
			L272.91,380.38z"/>
		<path class="st1" d="M284.01,369.87h2.71v13.2h-2.71V369.87z"/>
		<path class="st1" d="M303.8,383.34c-1.76,0-3.25-0.28-4.5-0.83c-1.25-0.55-2.2-1.34-2.86-2.36c-0.66-1.02-0.99-2.24-0.99-3.67
			c0-1.44,0.33-2.67,0.99-3.69c0.66-1.02,1.61-1.8,2.86-2.35c1.24-0.55,2.74-0.83,4.5-0.83c1.77,0,3.27,0.28,4.51,0.83
			c1.24,0.55,2.19,1.34,2.85,2.35c0.66,1.02,0.99,2.25,0.99,3.69c0,1.43-0.33,2.65-0.99,3.67c-0.66,1.02-1.61,1.81-2.85,2.36
			C307.08,383.06,305.57,383.34,303.8,383.34z M303.8,380.99c1.09,0,2.04-0.16,2.87-0.49c0.82-0.33,1.47-0.82,1.94-1.49
			c0.47-0.66,0.7-1.51,0.7-2.53c0-1.02-0.23-1.86-0.7-2.53c-0.47-0.67-1.12-1.17-1.94-1.5c-0.82-0.33-1.78-0.5-2.87-0.5
			c-1.07,0-2.03,0.17-2.88,0.5c-0.84,0.33-1.5,0.83-1.98,1.5c-0.48,0.66-0.72,1.51-0.72,2.53c0,1.02,0.24,1.87,0.72,2.53
			c0.47,0.67,1.13,1.17,1.98,1.49C301.77,380.83,302.73,380.99,303.8,380.99z M302.48,382.2h2.65v4.96h-2.65V382.2z"/>
		<path class="st1" d="M332.64,377.24v-7.37h2.72v7.65c0,0.87-0.13,1.63-0.38,2.28c-0.25,0.65-0.61,1.2-1.07,1.65
			c-0.46,0.45-1,0.81-1.62,1.09s-1.29,0.48-2.02,0.6c-0.73,0.12-1.49,0.18-2.3,0.18c-0.83,0-1.62-0.06-2.37-0.18
			c-0.75-0.12-1.43-0.33-2.05-0.6s-1.15-0.64-1.6-1.09c-0.45-0.45-0.8-1-1.05-1.65c-0.25-0.65-0.38-1.41-0.38-2.28v-7.65h2.71v7.37
			c0,1.03,0.2,1.82,0.61,2.35c0.41,0.54,0.97,0.91,1.68,1.1c0.71,0.2,1.53,0.3,2.44,0.3c0.89,0,1.68-0.1,2.38-0.3
			c0.7-0.2,1.26-0.56,1.67-1.1C332.43,379.06,332.64,378.27,332.64,377.24z"/>
		<path class="st1" d="M346.92,377.56v3.24h10.18v2.27h-12.9v-13.2h12.88v2.26h-10.16v3.28h8.33v2.14H346.92z"/>
		<path class="st1" d="M376.24,383.07v-13.2h7.61c1.77,0,3.11,0.3,4.03,0.89c0.92,0.59,1.38,1.47,1.38,2.64
			c0,0.75-0.18,1.34-0.55,1.76c-0.37,0.43-0.89,0.74-1.56,0.95c-0.67,0.2-1.47,0.33-2.38,0.39l0.08-0.14
			c0.67,0.01,1.3,0.06,1.89,0.14c0.59,0.08,1.11,0.23,1.56,0.45c0.45,0.22,0.8,0.52,1.06,0.91c0.26,0.39,0.39,0.9,0.39,1.52
			c0,0.82-0.22,1.49-0.65,2.03c-0.44,0.54-1.04,0.94-1.82,1.22c-0.78,0.27-1.67,0.42-2.69,0.45H376.24z M378.96,375.46h4.8
			c0.86,0,1.52-0.13,1.98-0.38c0.46-0.25,0.69-0.68,0.69-1.3c0-0.61-0.23-1.04-0.69-1.3c-0.46-0.25-1.07-0.38-1.84-0.38h-4.94
			V375.46z M378.96,380.83h5.35c0.86,0,1.52-0.14,1.98-0.42c0.46-0.28,0.69-0.72,0.69-1.34c0-0.45-0.14-0.78-0.41-0.98
			c-0.27-0.21-0.63-0.33-1.08-0.38c-0.45-0.05-0.93-0.07-1.45-0.07h-5.08V380.83z"/>
		<path class="st1" d="M400.58,377.56v3.24h10.18v2.27h-12.9v-13.2h12.88v2.26h-10.16v3.28h8.33v2.14H400.58z"/>
		<path class="st1" d="M445.31,378.32c-0.12,1.06-0.5,1.97-1.12,2.72c-0.63,0.75-1.48,1.32-2.55,1.71
			c-1.07,0.39-2.35,0.59-3.84,0.59c-1.24,0-2.37-0.14-3.4-0.43c-1.03-0.29-1.91-0.71-2.65-1.29c-0.74-0.57-1.32-1.28-1.72-2.13
			c-0.41-0.85-0.61-1.85-0.61-2.99s0.2-2.14,0.61-3c0.41-0.86,0.98-1.57,1.72-2.15c0.74-0.58,1.63-1.01,2.65-1.31
			c1.03-0.29,2.16-0.44,3.4-0.44c1.48,0,2.76,0.2,3.85,0.61c1.08,0.41,1.93,0.99,2.56,1.75c0.63,0.75,0.99,1.67,1.1,2.74h-2.69
			c-0.18-0.57-0.47-1.06-0.89-1.48s-0.95-0.73-1.6-0.95c-0.65-0.22-1.43-0.33-2.32-0.33c-1.12,0-2.1,0.17-2.94,0.52
			c-0.84,0.35-1.5,0.86-1.96,1.53c-0.46,0.67-0.69,1.51-0.69,2.5c0,0.98,0.23,1.8,0.69,2.47c0.46,0.67,1.11,1.17,1.96,1.52
			c0.84,0.35,1.82,0.52,2.94,0.52c0.9,0,1.67-0.11,2.31-0.33c0.65-0.22,1.18-0.53,1.59-0.94c0.42-0.41,0.72-0.89,0.91-1.43H445.31z"
			/>
		<path class="st1" d="M453.68,383.07v-13.2h8.96c1.02,0,1.91,0.14,2.66,0.42c0.76,0.28,1.34,0.71,1.77,1.31
			c0.42,0.59,0.63,1.35,0.63,2.27c0,0.63-0.11,1.16-0.33,1.59c-0.22,0.44-0.52,0.79-0.91,1.06c-0.39,0.27-0.83,0.48-1.34,0.62
			c-0.5,0.14-1.04,0.24-1.61,0.28l-0.29-0.16c0.95,0.01,1.73,0.09,2.35,0.24c0.61,0.14,1.07,0.4,1.38,0.77
			c0.31,0.38,0.46,0.93,0.46,1.66v3.14h-2.71v-2.96c0-0.5-0.09-0.89-0.27-1.17c-0.18-0.28-0.49-0.47-0.95-0.58
			c-0.46-0.11-1.11-0.16-1.97-0.16h-5.12v4.88H453.68z M456.39,376.07h6.25c0.76,0,1.34-0.19,1.74-0.55c0.4-0.37,0.6-0.86,0.6-1.49
			c0-0.6-0.2-1.05-0.6-1.36c-0.4-0.32-0.98-0.47-1.74-0.47h-6.25V376.07z"/>
		<path class="st1" d="M478.96,377.56v3.24h10.18v2.27h-12.9v-13.2h12.88v2.26h-10.16v3.28h8.33v2.14H478.96z"/>
		<path class="st1" d="M496.43,383.07l6.2-13.2h2.94l6.26,13.2h-2.96l-5.43-11.9h1.31l-5.39,11.9H496.43z M499.71,380.2v-2.27h8.73
			v2.27H499.71z"/>
		<path class="st1" d="M516.63,369.87h13.92v2.26h-13.92V369.87z M522.24,371.85h2.72v11.22h-2.72V371.85z"/>
		<path class="st1" d="M585.43,383.07l-5.84-13.2h3l5,11.92h-0.94l4.98-11.92h2.96l-5.78,13.2H585.43z"/>
		<path class="st1" d="M605,377.56v3.24h10.18v2.27h-12.9v-13.2h12.88v2.26H605v3.28h8.33v2.14H605z"/>
	</g>
	<g>
		<path class="st1" d="M201.68,262.12c-5.54-2.65-11.7-4.29-18.36-4.93c-2.21-0.24-4.49-0.34-6.8-0.34c-1.19,0-2.35,0.03-3.5,0.07
			c-37.44,1.19-48.09,32.48-63.29,53.66c-8.26,11.49-17.89,20.03-33.87,19.21c-2.35,0-4.63-0.17-6.8-0.58
			c-2.99-0.48-5.82-1.33-8.5-2.55c-0.58-0.27-1.16-0.54-1.7-0.85c-3.88-2.07-7.01-5-9.45-8.77c-2.75-4.29-4.15-9.56-4.15-15.81
			c0-6.33,1.39-11.63,4.15-15.88c2.79-4.25,6.5-7.48,11.15-9.69c4.66-2.21,9.76-3.33,15.3-3.33c6.8,0,12.72,1.7,17.75,5.03
			c4.46,2.92,7.69,6.9,9.73,11.9c0.14-0.24,0.27-0.44,0.41-0.68c3.13-5.03,6.53-10.54,10.54-15.95c-3.94-5-9.18-8.84-15.64-11.6
			c-6.56-2.79-14.18-4.18-22.79-4.18c-9.28,0-17.72,1.77-25.27,5.27c-7.52,3.54-13.5,8.57-17.92,15.13
			c-4.42,6.6-6.63,14.59-6.63,23.98c0,9.42,2.21,17.41,6.63,23.98c4.42,6.6,10.41,11.56,17.92,14.96c2.65,1.19,5.41,2.18,8.26,2.92
			c3.26,0.92,6.67,1.53,10.2,1.87c2.21,0.2,4.49,0.31,6.8,0.31c3.26,0,6.36-0.2,9.25-0.58c1.26-0.17,2.45-0.34,3.64-0.58
			c0.88-0.17,1.77-0.34,2.62-0.58c1.09-0.27,2.14-0.54,3.16-0.88c0.41-0.1,0.78-0.24,1.16-0.37c0.07,0,0.17-0.03,0.24-0.07
			c0.95-0.31,1.87-0.65,2.79-1.02c0.19-0.08,0.36-0.18,0.55-0.27c13.65-5.42,22.32-15.51,29.44-26.43
			c11.15-17.11,19.01-35.95,37.99-41.01c0.48-0.14,0.99-0.27,1.5-0.37c1.87-0.41,3.84-0.71,5.95-0.88c0.78-0.03,1.56-0.07,2.38-0.07
			c2.35,0,4.63,0.2,6.8,0.68c2.92,0.54,5.65,1.5,8.23,2.82c4.49,2.31,8.06,5.65,10.71,9.93c2.69,4.32,4.01,9.52,4.01,15.64
			c0,6.12-1.33,11.36-4.01,15.64c-2.65,4.32-6.26,7.55-10.78,9.69c-4.56,2.18-9.52,3.23-14.96,3.23c-5.58,0-10.64-1.05-15.24-3.23
			c-4.59-2.14-8.23-5.37-10.95-9.69c-2.72-4.28-4.08-9.52-4.08-15.64c0-0.75,0.03-1.5,0.07-2.21c-1.97,3.03-3.91,6.22-5.92,9.56
			c-1.97,3.2-3.91,6.46-5.99,9.62c-0.85,1.33-1.77,2.65-2.69,3.98c0.54,1.05,1.12,2.04,1.77,3.03c4.29,6.6,10.2,11.56,17.68,14.96
			c7.48,3.4,15.92,5.1,25.34,5.1c9.39,0,17.79-1.7,25.17-5.1c7.35-3.4,13.16-8.37,17.41-14.96c4.25-6.56,6.39-14.56,6.39-23.98
			c0-9.28-2.14-17.24-6.39-23.87C214.85,270.73,209.03,265.66,201.68,262.12z"/>
		<path class="st1" d="M308.97,283.61c-1.31-5.2-3.34-9.78-6.12-13.73c-2.83-4.02-6.69-7.2-11.56-9.52
			c-4.88-2.32-10.88-3.49-18.02-3.49c-8.16,0-15.39,1.87-21.68,5.61c-6.29,3.74-11.28,8.93-14.96,15.56
			c-3.68,6.63-5.53,14.37-5.53,23.21c0,8.61,1.87,16.24,5.61,22.87s8.81,11.82,15.22,15.56c6.4,3.74,13.52,5.61,21.34,5.61
			c7.03,0,12.95-1.39,17.77-4.16c4.82-2.78,8.67-6.38,11.56-10.8c2.89-4.42,5.02-9.21,6.38-14.37v7.4c0,3.06,0.17,6.52,0.51,10.37
			c0.34,3.86,0.62,7.08,0.85,9.69h17.68V203.98h-19.04V283.61z M305.48,315.87c-2.32,4.31-5.73,7.68-10.2,10.12
			c-4.48,2.44-9.89,3.66-16.24,3.66c-5.55,0-10.48-1.19-14.79-3.57c-4.31-2.38-7.68-5.72-10.12-10.03
			c-2.44-4.3-3.66-9.24-3.66-14.79c0-8.5,2.49-15.44,7.48-20.83c4.98-5.38,12.01-8.08,21.08-8.08c6.35,0,11.73,1.19,16.15,3.57
			c4.42,2.38,7.82,5.7,10.2,9.95c2.38,4.25,3.57,9.38,3.57,15.39C308.97,306.69,307.8,311.56,305.48,315.87z"/>
		<path class="st1" d="M415.66,262.22c-6.75-3.57-15.16-5.36-25.25-5.36c-9.75,0-18.34,1.82-25.76,5.44
			c-7.43,3.63-13.23,8.78-17.43,15.47c-4.19,6.69-6.29,14.51-6.29,23.46c0,9.07,2.15,16.89,6.46,23.46
			c4.31,6.58,10.26,11.65,17.86,15.22c7.59,3.57,16.21,5.35,25.84,5.35c8.5,0,15.81-1.28,21.93-3.83s10.97-6.06,14.54-10.54
			c3.57-4.48,5.81-9.61,6.72-15.39h-18.19c-1.36,4.31-4.28,7.76-8.76,10.37c-4.48,2.61-10.01,3.91-16.58,3.91
			c-5.89,0-11.05-1.05-15.47-3.15c-4.42-2.1-7.91-5.04-10.45-8.84c-2.55-3.8-4.11-8.08-4.68-12.84h74.65
			c0.56-10.77-0.8-19.69-4.08-26.78C427.42,271.13,422.41,265.79,415.66,262.22z M361.17,292.41c1.47-5.89,4.7-10.74,9.69-14.54
			c4.99-3.8,11.33-5.7,19.04-5.7c7.48,0,13.55,1.79,18.2,5.36c4.65,3.57,7.2,8.53,7.65,14.88H361.17z"/>
		<path class="st1" d="M523.64,265.11c-3.01-2.78-6.58-4.85-10.71-6.2c-4.14-1.36-8.64-2.04-13.52-2.04
			c-5.21,0-9.98,0.85-14.28,2.55s-8.05,4.06-11.22,7.06c-3.17,3.01-5.73,6.41-7.65,10.2c-1.06,2.1-1.9,4.27-2.55,6.49v-24.43h-18.87
			v84.68h18.87v-50.22c0.84-2.64,2.11-5.16,3.91-7.5c2.83-3.68,6.49-6.69,10.97-9.01c4.48-2.32,9.44-3.49,14.88-3.49
			c7.14,0,12.38,1.67,15.73,5.02c3.34,3.34,5.01,8.48,5.01,15.39v49.82h18.87v-53.56c0-5.55-0.82-10.37-2.46-14.45
			C528.96,271.32,526.64,267.89,523.64,265.11z"/>
		<polygon class="st1" points="669.27,258.74 646.31,258.74 623.77,287.16 599.73,258.74 576.43,258.74 612.8,300.54 576.43,343.42 
			599.55,343.42 623.44,313.16 648.35,343.42 671.48,343.42 634.4,299.71 		"/>
		<polygon class="st1" points="730.13,299.71 765,258.74 742.05,258.74 719.5,287.16 695.46,258.74 672.16,258.74 708.53,300.54 
			672.16,343.42 695.28,343.42 719.17,313.16 744.08,343.42 767.21,343.42 		"/>
		<path class="st1" d="M560.19,258.86h-4.42c-2.59,0-5.07-0.46-7.4-1.26v125.47h19.04V257.66
			C565.15,258.43,562.72,258.86,560.19,258.86z"/>
	</g>
</g>
</svg>
