<?xml version="1.0" encoding="utf-8"?>
<!-- Generator: Adobe Illustrator 27.3.1, SVG Export Plug-In . SVG Version: 6.00 Build 0)  -->
<svg version="1.1" id="Layer_1" xmlns="http://www.w3.org/2000/svg" xmlns:xlink="http://www.w3.org/1999/xlink" x="0px" y="0px"
	 viewBox="0 0 800 600" style="enable-background:new 0 0 800 600;" xml:space="preserve">
<style type="text/css">
	.st0{opacity:0.25;fill:#00A651;}
	.st1{fill:#009444;}
</style>
<g>
	<g>
		<circle class="st0" cx="394.55" cy="300.71" r="145.2"/>
		<g>
			<circle class="st0" cx="539.76" cy="300.71" r="145.2"/>
			<circle class="st0" cx="249.35" cy="300.71" r="145.2"/>
		</g>
	</g>
	<path class="st1" d="M548.11,255.22h4.27c4.85,0,8.78-3.93,8.78-8.78v0c0-4.85-3.93-8.78-8.78-8.78h-4.27
		c-4.85,0-8.78,3.93-8.78,8.78v0C539.34,251.29,543.27,255.22,548.11,255.22z"/>
	<g>
		<path class="st1" d="M187.64,380.86v-12.74h7.34c1.7,0,3,0.29,3.89,0.86c0.89,0.57,1.33,1.42,1.33,2.55c0,0.72-0.18,1.29-0.53,1.7
			c-0.35,0.41-0.86,0.72-1.51,0.92c-0.65,0.2-1.41,0.32-2.29,0.37l0.08-0.14c0.64,0.01,1.25,0.06,1.82,0.14
			c0.57,0.08,1.07,0.22,1.51,0.43c0.43,0.21,0.78,0.5,1.02,0.87c0.25,0.37,0.37,0.87,0.37,1.47c0,0.79-0.21,1.44-0.63,1.96
			c-0.42,0.52-1,0.91-1.75,1.17c-0.75,0.26-1.62,0.41-2.6,0.43H187.64z M190.25,373.51h4.63c0.83,0,1.46-0.12,1.91-0.36
			c0.45-0.24,0.67-0.66,0.67-1.25c0-0.59-0.22-1.01-0.67-1.25c-0.45-0.24-1.04-0.36-1.77-0.36h-4.77V373.51z M190.25,378.69h5.16
			c0.83,0,1.46-0.13,1.91-0.4c0.45-0.27,0.67-0.7,0.67-1.29c0-0.43-0.13-0.75-0.39-0.95c-0.26-0.2-0.61-0.32-1.04-0.37
			c-0.43-0.04-0.9-0.07-1.4-0.07h-4.9V378.69z"/>
		<path class="st1" d="M211.12,375.54v3.13h9.82v2.19h-12.44v-12.74h12.42v2.19h-9.81v3.17h8.03v2.07H211.12z"/>
		<path class="st1" d="M251.11,375.23v-7.11h2.62v7.38c0,0.84-0.12,1.57-0.37,2.2c-0.24,0.63-0.59,1.16-1.03,1.6
			c-0.45,0.43-0.97,0.78-1.57,1.05s-1.25,0.46-1.95,0.58c-0.7,0.12-1.44,0.18-2.22,0.18c-0.8,0-1.56-0.06-2.28-0.18
			c-0.72-0.12-1.38-0.31-1.98-0.58c-0.6-0.27-1.11-0.62-1.55-1.05c-0.43-0.44-0.77-0.96-1.01-1.6c-0.24-0.63-0.37-1.37-0.37-2.2
			v-7.38h2.62v7.11c0,1,0.2,1.76,0.59,2.27c0.39,0.52,0.94,0.87,1.62,1.06c0.69,0.19,1.47,0.29,2.35,0.29
			c0.85,0,1.62-0.09,2.29-0.29c0.68-0.19,1.21-0.54,1.61-1.06C250.91,376.99,251.11,376.23,251.11,375.23z"/>
		<path class="st1" d="M275.19,378.26l-0.83,0.33v-10.47h2.62v12.74h-2.62l-10.3-10.06l0.83-0.33v10.4h-2.62v-12.74h2.62
			L275.19,378.26z"/>
		<path class="st1" d="M285.9,368.12h2.62v12.74h-2.62V368.12z"/>
		<path class="st1" d="M305,381.12c-1.69,0-3.14-0.27-4.34-0.8c-1.2-0.53-2.12-1.29-2.76-2.28c-0.64-0.98-0.95-2.16-0.95-3.54
			c0-1.39,0.32-2.58,0.95-3.56c0.64-0.98,1.56-1.74,2.76-2.27c1.2-0.53,2.65-0.8,4.34-0.8c1.71,0,3.16,0.27,4.35,0.8
			c1.19,0.53,2.11,1.29,2.75,2.27c0.64,0.99,0.95,2.17,0.95,3.56c0,1.38-0.32,2.56-0.95,3.54c-0.64,0.99-1.55,1.74-2.75,2.28
			C308.15,380.85,306.7,381.12,305,381.12z M305,378.85c1.05,0,1.97-0.16,2.77-0.47c0.79-0.31,1.42-0.79,1.87-1.44
			c0.45-0.64,0.68-1.45,0.68-2.44c0-0.98-0.23-1.8-0.68-2.44c-0.45-0.64-1.08-1.13-1.87-1.45c-0.79-0.32-1.72-0.48-2.77-0.48
			c-1.04,0-1.96,0.16-2.78,0.48c-0.81,0.32-1.45,0.8-1.91,1.45c-0.46,0.64-0.69,1.45-0.69,2.44c0,0.99,0.23,1.8,0.69,2.44
			c0.46,0.64,1.09,1.12,1.91,1.44C303.03,378.69,303.96,378.85,305,378.85z M303.72,380.01h2.56v4.78h-2.56V380.01z"/>
		<path class="st1" d="M332.82,375.23v-7.11h2.62v7.38c0,0.84-0.12,1.57-0.37,2.2c-0.24,0.63-0.59,1.16-1.03,1.6
			c-0.45,0.43-0.97,0.78-1.57,1.05c-0.6,0.27-1.25,0.46-1.95,0.58c-0.7,0.12-1.44,0.18-2.22,0.18c-0.8,0-1.56-0.06-2.28-0.18
			c-0.72-0.12-1.38-0.31-1.98-0.58s-1.11-0.62-1.55-1.05c-0.43-0.44-0.77-0.96-1.01-1.6c-0.24-0.63-0.37-1.37-0.37-2.2v-7.38h2.62
			v7.11c0,1,0.2,1.76,0.59,2.27c0.39,0.52,0.94,0.87,1.62,1.06c0.69,0.19,1.47,0.29,2.35,0.29c0.85,0,1.62-0.09,2.29-0.29
			c0.68-0.19,1.21-0.54,1.61-1.06C332.62,376.99,332.82,376.23,332.82,375.23z"/>
		<path class="st1" d="M346.6,375.54v3.13h9.82v2.19h-12.44v-12.74h12.42v2.19h-9.81v3.17h8.03v2.07H346.6z"/>
		<path class="st1" d="M374.89,380.86v-12.74h7.34c1.7,0,3,0.29,3.89,0.86c0.89,0.57,1.33,1.42,1.33,2.55c0,0.72-0.18,1.29-0.53,1.7
			c-0.35,0.41-0.86,0.72-1.51,0.92c-0.65,0.2-1.41,0.32-2.29,0.37l0.08-0.14c0.64,0.01,1.25,0.06,1.82,0.14
			c0.57,0.08,1.07,0.22,1.51,0.43c0.43,0.21,0.78,0.5,1.02,0.87c0.25,0.37,0.37,0.87,0.37,1.47c0,0.79-0.21,1.44-0.63,1.96
			c-0.42,0.52-1,0.91-1.75,1.17c-0.75,0.26-1.62,0.41-2.6,0.43H374.89z M377.51,373.51h4.63c0.83,0,1.46-0.12,1.91-0.36
			c0.45-0.24,0.67-0.66,0.67-1.25c0-0.59-0.22-1.01-0.67-1.25c-0.45-0.24-1.04-0.36-1.77-0.36h-4.77V373.51z M377.51,378.69h5.16
			c0.83,0,1.46-0.13,1.91-0.4c0.45-0.27,0.67-0.7,0.67-1.29c0-0.43-0.13-0.75-0.39-0.95c-0.26-0.2-0.61-0.32-1.04-0.37
			c-0.43-0.04-0.9-0.07-1.4-0.07h-4.9V378.69z"/>
		<path class="st1" d="M398.38,375.54v3.13h9.82v2.19h-12.44v-12.74h12.42v2.19h-9.81v3.17h8.03v2.07H398.38z"/>
		<path class="st1" d="M441.53,376.27c-0.12,1.03-0.48,1.9-1.08,2.62c-0.6,0.72-1.42,1.27-2.46,1.65c-1.04,0.38-2.27,0.57-3.7,0.57
			c-1.2,0-2.29-0.14-3.28-0.41c-0.99-0.28-1.84-0.69-2.56-1.24c-0.71-0.55-1.27-1.24-1.66-2.06c-0.39-0.82-0.59-1.78-0.59-2.88
			s0.2-2.07,0.59-2.9c0.39-0.83,0.95-1.52,1.66-2.08c0.72-0.56,1.57-0.98,2.56-1.26c0.99-0.28,2.08-0.42,3.28-0.42
			c1.43,0,2.67,0.2,3.71,0.59c1.04,0.39,1.87,0.95,2.47,1.69c0.6,0.73,0.96,1.61,1.06,2.65h-2.6c-0.17-0.55-0.46-1.03-0.86-1.43
			c-0.4-0.4-0.91-0.71-1.55-0.92c-0.63-0.21-1.38-0.31-2.24-0.31c-1.08,0-2.02,0.17-2.84,0.5c-0.81,0.34-1.44,0.83-1.89,1.48
			c-0.45,0.65-0.67,1.45-0.67,2.41c0,0.95,0.22,1.74,0.67,2.38c0.45,0.64,1.08,1.13,1.89,1.47c0.81,0.33,1.76,0.5,2.84,0.5
			c0.87,0,1.61-0.1,2.23-0.31c0.62-0.21,1.14-0.51,1.54-0.9c0.4-0.39,0.69-0.86,0.88-1.38H441.53z"/>
		<path class="st1" d="M449.61,380.86v-12.74h8.64c0.98,0,1.84,0.13,2.57,0.4c0.73,0.27,1.3,0.69,1.7,1.26
			c0.41,0.57,0.61,1.3,0.61,2.2c0,0.61-0.11,1.12-0.32,1.53c-0.21,0.42-0.5,0.76-0.87,1.03c-0.37,0.26-0.8,0.46-1.29,0.6
			s-1,0.23-1.56,0.27l-0.28-0.16c0.92,0.01,1.67,0.09,2.26,0.23s1.03,0.38,1.33,0.75c0.29,0.36,0.44,0.9,0.44,1.61v3.03h-2.62V378
			c0-0.48-0.09-0.86-0.26-1.13c-0.17-0.27-0.48-0.46-0.91-0.56c-0.44-0.11-1.07-0.16-1.9-0.16h-4.94v4.7H449.61z M452.22,374.11
			h6.03c0.73,0,1.3-0.18,1.68-0.53c0.39-0.36,0.58-0.83,0.58-1.44c0-0.58-0.19-1.02-0.58-1.32c-0.39-0.3-0.95-0.46-1.68-0.46h-6.03
			V374.11z"/>
		<path class="st1" d="M474,375.54v3.13h9.82v2.19h-12.44v-12.74h12.42v2.19H474v3.17h8.03v2.07H474z"/>
		<path class="st1" d="M490.85,380.86l5.99-12.74h2.84l6.04,12.74h-2.86l-5.24-11.48h1.26l-5.2,11.48H490.85z M494.02,378.08v-2.19
			h8.42v2.19H494.02z"/>
		<path class="st1" d="M510.34,368.12h13.43v2.19h-13.43V368.12z M515.76,370.03h2.62v10.83h-2.62V370.03z"/>
		<path class="st1" d="M576.73,380.86l-5.63-12.74h2.89l4.82,11.5h-0.9l4.8-11.5h2.86L580,380.86H576.73z"/>
		<path class="st1" d="M595.61,375.54v3.13h9.82v2.19h-12.44v-12.74h12.42v2.19h-9.81v3.17h8.03v2.07H595.61z"/>
	</g>
	<g>
		<path class="st1" d="M206.46,264.16c-5.35-2.56-11.29-4.13-17.72-4.76c-2.13-0.23-4.33-0.33-6.56-0.33
			c-1.15,0-2.26,0.03-3.38,0.07c-36.13,1.15-46.4,31.34-61.07,51.78c-7.97,11.09-17.26,19.33-32.68,18.54
			c-2.26,0-4.46-0.16-6.56-0.56c-2.89-0.46-5.61-1.28-8.2-2.46c-0.56-0.26-1.12-0.52-1.64-0.82c-3.74-2-6.76-4.82-9.12-8.47
			c-2.66-4.13-4-9.22-4-15.26c0-6.1,1.35-11.22,4-15.32c2.69-4.1,6.27-7.22,10.76-9.35c4.5-2.13,9.42-3.22,14.77-3.22
			c6.56,0,12.27,1.64,17.13,4.86c4.3,2.82,7.42,6.66,9.38,11.48c0.13-0.23,0.26-0.43,0.39-0.66c3.02-4.86,6.3-10.17,10.17-15.39
			c-3.81-4.82-8.86-8.53-15.09-11.19c-6.33-2.69-13.68-4.04-21.99-4.04c-8.96,0-17.1,1.71-24.38,5.09
			c-7.25,3.41-13.03,8.27-17.29,14.6c-4.27,6.37-6.4,14.08-6.4,23.13c0,9.09,2.13,16.8,6.4,23.13c4.27,6.37,10.04,11.16,17.29,14.44
			c2.56,1.15,5.22,2.1,7.97,2.82c3.15,0.89,6.43,1.48,9.84,1.8c2.13,0.2,4.33,0.3,6.56,0.3c3.15,0,6.14-0.2,8.93-0.56
			c1.21-0.16,2.36-0.33,3.51-0.56c0.85-0.16,1.71-0.33,2.53-0.56c1.05-0.26,2.07-0.52,3.05-0.85c0.39-0.1,0.75-0.23,1.12-0.36
			c0.07,0,0.16-0.03,0.23-0.07c0.92-0.3,1.8-0.62,2.69-0.98c0.19-0.08,0.35-0.18,0.53-0.26c13.17-5.23,21.53-14.97,28.41-25.5
			c10.76-16.51,18.34-34.68,36.65-39.57c0.46-0.13,0.95-0.26,1.44-0.36c1.8-0.39,3.71-0.69,5.74-0.85c0.75-0.03,1.51-0.07,2.3-0.07
			c2.26,0,4.46,0.2,6.56,0.66c2.82,0.52,5.45,1.44,7.94,2.72c4.33,2.23,7.78,5.45,10.34,9.58c2.59,4.17,3.87,9.19,3.87,15.09
			c0,5.91-1.28,10.96-3.87,15.09c-2.56,4.17-6.04,7.28-10.4,9.35c-4.4,2.1-9.19,3.12-14.44,3.12c-5.38,0-10.27-1.02-14.7-3.12
			c-4.43-2.07-7.94-5.18-10.57-9.35c-2.63-4.13-3.94-9.19-3.94-15.09c0-0.72,0.03-1.44,0.07-2.13c-1.9,2.92-3.77,6-5.71,9.22
			c-1.9,3.08-3.77,6.23-5.78,9.29c-0.82,1.28-1.71,2.56-2.59,3.84c0.53,1.02,1.08,1.97,1.71,2.92c4.13,6.37,9.84,11.16,17.06,14.44
			s15.36,4.92,24.45,4.92c9.06,0,17.16-1.64,24.28-4.92c7.09-3.28,12.7-8.07,16.8-14.44c4.1-6.33,6.17-14.04,6.17-23.13
			c0-8.96-2.07-16.64-6.17-23.04C219.16,272.46,213.55,267.57,206.46,264.16z"/>
		<path class="st1" d="M309.98,284.89c-1.26-5.02-3.23-9.44-5.91-13.25c-2.73-3.88-6.45-6.94-11.15-9.19
			c-4.7-2.24-10.5-3.36-17.39-3.36c-7.88,0-14.85,1.8-20.92,5.42c-6.07,3.61-10.89,8.61-14.44,15.01c-3.55,6.4-5.33,13.87-5.33,22.4
			c0,8.31,1.81,15.67,5.42,22.07c3.61,6.4,8.5,11.4,14.68,15.01c6.18,3.61,13.04,5.41,20.59,5.41c6.78,0,12.49-1.34,17.14-4.02
			c4.65-2.68,8.37-6.15,11.15-10.42c2.79-4.27,4.84-8.89,6.15-13.86v7.14c0,2.95,0.16,6.29,0.49,10.01c0.33,3.72,0.6,6.84,0.82,9.35
			h17.06V208.06h-18.37V284.89z M306.62,316.02c-2.24,4.16-5.52,7.41-9.84,9.76c-4.32,2.36-9.55,3.53-15.67,3.53
			c-5.36,0-10.12-1.15-14.27-3.44c-4.16-2.3-7.41-5.52-9.76-9.68c-2.36-4.15-3.53-8.91-3.53-14.27c0-8.2,2.4-14.9,7.22-20.1
			c4.81-5.19,11.59-7.79,20.34-7.79c6.12,0,11.32,1.15,15.59,3.44c4.27,2.3,7.55,5.5,9.84,9.6c2.3,4.1,3.44,9.05,3.44,14.85
			C309.98,307.16,308.86,311.86,306.62,316.02z"/>
		<path class="st1" d="M412.93,264.26c-6.51-3.44-14.63-5.17-24.36-5.17c-9.41,0-17.69,1.75-24.86,5.25
			c-7.17,3.5-12.77,8.48-16.82,14.93c-4.05,6.45-6.07,14-6.07,22.64c0,8.75,2.08,16.3,6.23,22.64c4.16,6.34,9.9,11.24,17.23,14.69
			c7.33,3.44,15.64,5.17,24.94,5.17c8.2,0,15.26-1.23,21.16-3.69c5.91-2.46,10.58-5.85,14.03-10.17c3.44-4.32,5.6-9.27,6.48-14.85
			h-17.55c-1.31,4.16-4.13,7.49-8.45,10.01c-4.32,2.52-9.66,3.77-16,3.77c-5.69,0-10.66-1.01-14.93-3.03
			c-4.27-2.02-7.63-4.86-10.09-8.53c-2.46-3.66-3.97-7.79-4.52-12.39h72.03c0.54-10.39-0.77-19-3.94-25.84
			C424.27,272.84,419.43,267.7,412.93,264.26z M360.35,293.38c1.42-5.69,4.54-10.36,9.35-14.03c4.81-3.66,10.94-5.5,18.37-5.5
			c7.22,0,13.07,1.72,17.56,5.17c4.48,3.44,6.94,8.23,7.38,14.36H360.35z"/>
		<path class="st1" d="M517.11,267.04c-2.9-2.68-6.34-4.68-10.34-5.99c-3.99-1.31-8.34-1.97-13.04-1.97
			c-5.03,0-9.63,0.82-13.78,2.46c-4.16,1.64-7.77,3.91-10.83,6.81c-3.06,2.9-5.52,6.18-7.38,9.84c-1.03,2.03-1.83,4.12-2.46,6.26
			v-23.57h-18.21v81.7h18.21v-48.46c0.81-2.55,2.03-4.98,3.77-7.24c2.73-3.55,6.26-6.45,10.58-8.69c4.32-2.24,9.11-3.36,14.36-3.36
			c6.89,0,11.95,1.62,15.18,4.84c3.22,3.23,4.84,8.18,4.84,14.85v48.07h18.21v-51.68c0-5.36-0.79-10.01-2.38-13.95
			C522.25,273.03,520,269.73,517.11,267.04z"/>
		<polygon class="st1" points="657.62,260.89 635.48,260.89 613.72,288.31 590.52,260.89 568.04,260.89 603.14,301.23 568.04,342.6 
			590.36,342.6 613.4,313.4 637.44,342.6 659.76,342.6 623.98,300.43 		"/>
		<polygon class="st1" points="716.35,300.43 749.99,260.89 727.84,260.89 706.09,288.31 682.89,260.89 660.41,260.89 
			695.51,301.23 660.41,342.6 682.73,342.6 705.77,313.4 729.81,342.6 752.12,342.6 		"/>
		<path class="st1" d="M552.38,261.01h-4.27c-2.5,0-4.9-0.44-7.14-1.22v121.07h18.37V259.85
			C557.16,260.59,554.82,261.01,552.38,261.01z"/>
	</g>
</g>
</svg>
