<?xml version="1.0" encoding="utf-8"?>
<!-- Generator: Adobe Illustrator 24.3.0, SVG Export Plug-In . SVG Version: 6.00 Build 0)  -->
<svg version="1.1" id="Layer_1" xmlns="http://www.w3.org/2000/svg" xmlns:xlink="http://www.w3.org/1999/xlink" x="0px" y="0px"
	 viewBox="0 0 800 600" style="enable-background:new 0 0 800 600;" xml:space="preserve">
<style type="text/css">
	.st0{opacity:0.25;fill:#00A651;}
	.st1{fill:#FFFFFF;}
</style>
<g>
	<g>
		<circle class="st0" cx="401.33" cy="315.87" r="157.67"/>
		<g>
			<circle class="st0" cx="559" cy="315.87" r="157.67"/>
			<circle class="st0" cx="243.66" cy="315.87" r="157.67"/>
		</g>
	</g>
	<g>
		<g>
			<path class="st1" d="M113.18,319.49c-0.71,7.6-3.15,14.14-7.3,19.6c-4.16,5.47-9.71,9.62-16.66,12.47
				c-6.95,2.85-14.94,4.28-23.96,4.28c-9.74,0-18.56-1.78-26.45-5.34c-7.9-3.56-14.16-8.79-18.79-15.68
				c-4.63-6.89-6.95-15.26-6.95-25.12s2.32-18.23,6.95-25.12c4.63-6.89,10.89-12.17,18.79-15.86c7.9-3.68,16.71-5.52,26.45-5.52
				c9.02,0,16.98,1.45,23.87,4.36c6.89,2.91,12.41,7.04,16.57,12.38c4.15,5.34,6.59,11.82,7.3,19.42H94.83
				c-2.02-6.29-5.67-11.19-10.96-14.7c-5.29-3.5-11.49-5.25-18.62-5.25c-5.82,0-11.17,1.16-16.03,3.47
				c-4.87,2.32-8.76,5.7-11.67,10.15c-2.91,4.45-4.37,10.01-4.37,16.66c0,6.53,1.45,12.05,4.37,16.57
				c2.91,4.52,6.8,7.87,11.67,10.07c4.87,2.2,10.21,3.3,16.03,3.3c7.84,0,14.28-1.75,19.33-5.25c5.05-3.5,8.52-8.46,10.42-14.88
				H113.18z"/>
			<path class="st1" d="M170.72,355.83c-9.86,0-18.71-1.78-26.54-5.34c-7.84-3.56-14.02-8.79-18.53-15.68
				c-4.51-6.89-6.77-15.26-6.77-25.12c0-9.74,2.25-18.08,6.77-25.03c4.51-6.95,10.69-12.26,18.53-15.94
				c7.84-3.68,16.68-5.52,26.54-5.52c9.86,0,18.64,1.84,26.37,5.52c7.72,3.68,13.8,8.99,18.26,15.94
				c4.45,6.95,6.68,15.29,6.68,25.03c0,9.86-2.23,18.23-6.68,25.12c-4.45,6.89-10.54,12.11-18.26,15.68
				C189.36,354.05,180.58,355.83,170.72,355.83z M170.72,339.62c5.7,0,10.93-1.13,15.68-3.39c4.75-2.25,8.52-5.64,11.31-10.15
				c2.79-4.51,4.19-9.98,4.19-16.39c0-6.42-1.4-11.88-4.19-16.39c-2.79-4.51-6.53-7.99-11.22-10.42c-4.69-2.43-9.95-3.65-15.77-3.65
				c-5.82,0-11.11,1.19-15.86,3.56c-4.75,2.38-8.58,5.82-11.49,10.33c-2.91,4.52-4.37,10.04-4.37,16.57
				c0,6.41,1.42,11.88,4.28,16.39c2.85,4.51,6.68,7.9,11.49,10.15C159.59,338.49,164.9,339.62,170.72,339.62z"/>
			<path class="st1" d="M272.09,355.83c-8.2,0-15.65-1.96-22.36-5.88c-6.71-3.92-12.03-9.35-15.94-16.3
				c-3.92-6.95-5.88-14.93-5.88-23.96c0-9.27,1.93-17.37,5.79-24.32c3.86-6.95,9.08-12.38,15.68-16.3
				c6.59-3.92,14.16-5.88,22.71-5.88c7.48,0,13.78,1.22,18.89,3.65c5.1,2.44,9.14,5.76,12.11,9.98c2.97,4.22,5.14,9.12,6.5,14.7
				c1.36,5.58,2.05,11.64,2.05,18.17c0,4.87-0.71,10-2.14,15.41c-1.42,5.41-3.65,10.42-6.68,15.05c-3.03,4.63-7.07,8.41-12.11,11.32
				C285.65,354.38,279.45,355.83,272.09,355.83z M278.14,339.44c6.65,0,12.32-1.28,17.01-3.83c4.69-2.55,8.25-6.09,10.69-10.6
				c2.43-4.51,3.65-9.62,3.65-15.32c0-6.29-1.25-11.67-3.74-16.12s-6.06-7.93-10.69-10.42c-4.63-2.49-10.28-3.74-16.92-3.74
				c-9.5,0-16.87,2.82-22.09,8.46c-5.23,5.64-7.84,12.92-7.84,21.82c0,5.82,1.27,10.98,3.83,15.5c2.55,4.51,6.09,8.02,10.6,10.51
				C267.16,338.19,272.32,339.44,278.14,339.44z M309.5,229.52h19.95v124.35h-18.52c-0.24-2.73-0.54-6.12-0.89-10.16
				c-0.36-4.04-0.54-7.66-0.54-10.87V229.52z"/>
			<path class="st1" d="M421.73,324.65h19.06c-0.95,6.06-3.3,11.43-7.04,16.12c-3.74,4.69-8.82,8.37-15.23,11.04
				c-6.41,2.67-14.07,4.01-22.98,4.01c-10.1,0-19.12-1.87-27.08-5.61c-7.96-3.74-14.2-9.05-18.71-15.94
				c-4.51-6.89-6.77-15.08-6.77-24.58c0-9.38,2.2-17.58,6.59-24.59c4.39-7,10.48-12.41,18.26-16.21c7.78-3.8,16.77-5.7,26.99-5.7
				c10.57,0,19.39,1.87,26.45,5.61c7.06,3.74,12.32,9.33,15.77,16.75c3.44,7.43,4.87,16.78,4.28,28.06h-78.21
				c0.59,4.99,2.23,9.47,4.9,13.45c2.67,3.98,6.32,7.07,10.95,9.27c4.63,2.2,10.03,3.3,16.21,3.3c6.89,0,12.68-1.36,17.37-4.1
				C417.24,332.79,420.3,329.17,421.73,324.65z M394.29,279.23c-8.08,0-14.73,1.99-19.95,5.97c-5.23,3.98-8.61,9.06-10.15,15.23
				h57.18c-0.47-6.65-3.15-11.84-8.01-15.59C408.48,281.1,402.13,279.23,394.29,279.23z"/>
			<path class="st1" d="M451.83,265.15h19.77v88.72h-19.77V265.15z M509.02,263.2c5.1,0,9.83,0.71,14.16,2.14
				c4.34,1.43,8.08,3.59,11.22,6.5c3.15,2.91,5.58,6.5,7.3,10.78c1.72,4.28,2.58,9.33,2.58,15.14v56.12h-19.77v-52.2
				c0-7.24-1.75-12.62-5.25-16.12c-3.5-3.5-9-5.25-16.48-5.25c-5.7,0-10.9,1.22-15.59,3.65c-4.69,2.44-8.52,5.58-11.49,9.44
				c-2.97,3.86-4.69,8.1-5.17,12.74l-0.18-9.62c0.59-4.39,1.9-8.58,3.92-12.56c2.02-3.98,4.69-7.54,8.02-10.69
				c3.32-3.15,7.24-5.61,11.76-7.39C498.57,264.09,503.55,263.2,509.02,263.2z"/>
			<g>
				<path class="st1" d="M572.7,276.29h-4.63c-2.91,0-5.57-0.99-7.75-2.6v80.18h19.95v-80.03
					C578.13,275.37,575.53,276.29,572.7,276.29z"/>
				<path class="st1" d="M558.54,263.2L558.54,263.2c0,5.26,4.27,9.53,9.53,9.53h4.63c5.26,0,9.53-4.27,9.53-9.53v0
					c0-5.26-4.27-9.53-9.53-9.53h-4.63C562.81,253.66,558.54,257.93,558.54,263.2z"/>
			</g>
			<path class="st1" d="M589.71,265.15h24.41l31.35,37.05l43.82,51.66h-24.23l-32.42-39.37L589.71,265.15z M686.98,265.15
				l-41.69,48.99l-31.35,39.73h-24.23l43.82-51.66l29.39-37.05H686.98z"/>
			<path class="st1" d="M690.01,265.15h24.41l31.35,37.05l43.82,51.66h-24.23l-32.42-39.37L690.01,265.15z M787.28,265.15
				l-41.69,48.99l-31.35,39.73h-24.23l43.82-51.66l29.39-37.05H787.28z"/>
		</g>
		<g>
			<path class="st1" d="M200.04,396.78v-18.44h10.63c2.47,0,4.35,0.41,5.63,1.24c1.28,0.83,1.92,2.06,1.92,3.69
				c0,1.04-0.26,1.87-0.77,2.47c-0.51,0.6-1.24,1.04-2.18,1.33c-0.94,0.28-2.05,0.46-3.32,0.54l0.11-0.2
				c0.93,0.02,1.81,0.08,2.63,0.2c0.83,0.11,1.56,0.32,2.18,0.63c0.63,0.31,1.12,0.73,1.48,1.27c0.36,0.54,0.54,1.25,0.54,2.12
				c0,1.14-0.31,2.09-0.92,2.84c-0.61,0.75-1.45,1.32-2.54,1.7c-1.08,0.38-2.33,0.59-3.76,0.63H200.04z M203.83,386.15h6.7
				c1.2,0,2.12-0.17,2.77-0.53c0.64-0.35,0.97-0.96,0.97-1.81c0-0.86-0.32-1.46-0.97-1.81c-0.65-0.35-1.5-0.53-2.56-0.53h-6.9
				V386.15z M203.83,393.65h7.47c1.2,0,2.12-0.19,2.77-0.58s0.97-1.01,0.97-1.87c0-0.63-0.19-1.08-0.57-1.37
				c-0.38-0.29-0.88-0.46-1.51-0.53c-0.63-0.07-1.3-0.1-2.03-0.1h-7.1V393.65z"/>
			<path class="st1" d="M226.06,389.09v4.53h14.22v3.16h-18.01v-18.44h17.99v3.16h-14.2v4.59h11.63v2.99H226.06z"/>
			<path class="st1" d="M267.99,388.63v-10.29h3.79v10.69c0,1.21-0.18,2.28-0.53,3.19c-0.35,0.91-0.85,1.68-1.5,2.31
				s-1.4,1.13-2.27,1.52c-0.87,0.39-1.81,0.67-2.82,0.84c-1.02,0.17-2.09,0.25-3.21,0.25c-1.16,0-2.26-0.08-3.31-0.25
				c-1.05-0.17-2-0.45-2.86-0.84c-0.87-0.39-1.61-0.9-2.24-1.52c-0.63-0.63-1.11-1.4-1.46-2.31c-0.35-0.91-0.53-1.98-0.53-3.19
				v-10.69h3.79v10.29c0,1.44,0.28,2.54,0.85,3.29c0.57,0.75,1.35,1.27,2.35,1.54c1,0.27,2.13,0.41,3.41,0.41
				c1.24,0,2.34-0.14,3.32-0.41c0.98-0.27,1.76-0.79,2.34-1.54C267.7,391.18,267.99,390.08,267.99,388.63z"/>
			<path class="st1" d="M294.87,393.02l-1.2,0.48v-15.16h3.79v18.44h-3.79l-14.91-14.57l1.2-0.48v15.05h-3.79v-18.44h3.79
				L294.87,393.02z"/>
			<path class="st1" d="M302.39,378.34h3.79v18.44h-3.79V378.34z"/>
			<path class="st1" d="M322.06,397.15c-2.45,0-4.54-0.38-6.28-1.15c-1.74-0.77-3.07-1.87-3.99-3.29c-0.92-1.43-1.38-3.14-1.38-5.13
				c0-2.01,0.46-3.73,1.38-5.16c0.92-1.42,2.25-2.52,3.99-3.29c1.74-0.77,3.83-1.16,6.28-1.16c2.47,0,4.57,0.39,6.3,1.16
				c1.73,0.77,3.05,1.87,3.98,3.29c0.92,1.43,1.38,3.15,1.38,5.16c0,1.99-0.46,3.71-1.38,5.13c-0.92,1.42-2.25,2.52-3.98,3.29
				C326.63,396.77,324.53,397.15,322.06,397.15z M322.06,393.88c1.52,0,2.86-0.23,4-0.68c1.15-0.46,2.05-1.15,2.71-2.08
				c0.65-0.93,0.98-2.11,0.98-3.54c0-1.43-0.33-2.6-0.98-3.54c-0.66-0.93-1.56-1.63-2.71-2.09c-1.15-0.47-2.48-0.7-4-0.7
				c-1.5,0-2.84,0.23-4.02,0.7c-1.18,0.47-2.1,1.17-2.76,2.09c-0.66,0.93-1,2.11-1,3.54c0,1.43,0.33,2.6,1,3.54
				c0.66,0.93,1.59,1.62,2.76,2.08C319.22,393.65,320.56,393.88,322.06,393.88z M320.21,395.56h3.71v6.92h-3.71V395.56z"/>
			<path class="st1" d="M354.36,388.63v-10.29h3.79v10.69c0,1.21-0.17,2.28-0.53,3.19c-0.35,0.91-0.85,1.68-1.5,2.31
				c-0.64,0.63-1.4,1.13-2.27,1.52c-0.86,0.39-1.81,0.67-2.82,0.84s-2.08,0.25-3.2,0.25c-1.16,0-2.26-0.08-3.31-0.25
				c-1.04-0.17-2-0.45-2.86-0.84c-0.87-0.39-1.61-0.9-2.24-1.52s-1.12-1.4-1.47-2.31c-0.35-0.91-0.53-1.98-0.53-3.19v-10.69h3.79
				v10.29c0,1.44,0.29,2.54,0.86,3.29c0.57,0.75,1.35,1.27,2.35,1.54c1,0.27,2.13,0.41,3.41,0.41c1.24,0,2.34-0.14,3.32-0.41
				c0.98-0.27,1.76-0.79,2.34-1.54C354.06,391.18,354.36,390.08,354.36,388.63z"/>
			<path class="st1" d="M366.33,389.09v4.53h14.22v3.16h-18.01v-18.44h17.99v3.16h-14.2v4.59h11.63v2.99H366.33z"/>
			<path class="st1" d="M391.33,396.78v-18.44h10.63c2.47,0,4.35,0.41,5.63,1.24c1.28,0.83,1.92,2.06,1.92,3.69
				c0,1.04-0.26,1.87-0.77,2.47c-0.51,0.6-1.24,1.04-2.18,1.33c-0.94,0.28-2.05,0.46-3.32,0.54l0.11-0.2
				c0.93,0.02,1.81,0.08,2.63,0.2c0.83,0.11,1.56,0.32,2.18,0.63c0.63,0.31,1.12,0.73,1.48,1.27c0.36,0.54,0.54,1.25,0.54,2.12
				c0,1.14-0.31,2.09-0.92,2.84c-0.61,0.75-1.45,1.32-2.54,1.7c-1.08,0.38-2.33,0.59-3.76,0.63H391.33z M395.12,386.15h6.7
				c1.2,0,2.12-0.17,2.77-0.53c0.64-0.35,0.97-0.96,0.97-1.81c0-0.86-0.32-1.46-0.97-1.81c-0.65-0.35-1.5-0.53-2.56-0.53h-6.9
				V386.15z M395.12,393.65h7.47c1.2,0,2.12-0.19,2.77-0.58s0.97-1.01,0.97-1.87c0-0.63-0.19-1.08-0.57-1.37
				c-0.38-0.29-0.88-0.46-1.51-0.53c-0.63-0.07-1.3-0.1-2.03-0.1h-7.1V393.65z"/>
			<path class="st1" d="M417.35,389.09v4.53h14.22v3.16h-18.01v-18.44h17.99v3.16h-14.2v4.59h11.63v2.99H417.35z"/>
			<path class="st1" d="M463.87,390.14c-0.17,1.48-0.69,2.75-1.57,3.79c-0.87,1.04-2.06,1.84-3.56,2.39
				c-1.5,0.55-3.29,0.82-5.36,0.82c-1.73,0-3.31-0.2-4.75-0.6c-1.44-0.4-2.67-1-3.71-1.8c-1.04-0.8-1.84-1.79-2.41-2.98
				c-0.57-1.19-0.86-2.58-0.86-4.18c0-1.6,0.29-2.99,0.86-4.19s1.37-2.2,2.41-3.01c1.04-0.81,2.27-1.42,3.71-1.83
				c1.43-0.41,3.02-0.61,4.75-0.61c2.07,0,3.86,0.29,5.37,0.86c1.51,0.57,2.7,1.38,3.58,2.44c0.87,1.06,1.39,2.33,1.54,3.83h-3.76
				c-0.25-0.8-0.66-1.49-1.24-2.07c-0.58-0.58-1.33-1.02-2.24-1.33c-0.91-0.3-2-0.46-3.25-0.46c-1.56,0-2.93,0.24-4.11,0.73
				c-1.18,0.49-2.09,1.2-2.73,2.14c-0.65,0.94-0.97,2.11-0.97,3.49c0,1.37,0.32,2.52,0.97,3.45c0.64,0.93,1.56,1.64,2.73,2.13
				c1.18,0.48,2.55,0.73,4.11,0.73c1.25,0,2.33-0.15,3.24-0.46c0.9-0.31,1.64-0.74,2.22-1.31c0.58-0.57,1-1.24,1.27-2H463.87z"/>
			<path class="st1" d="M467.57,396.78v-18.44h12.51c1.43,0,2.67,0.19,3.72,0.58s1.88,1,2.47,1.82s0.88,1.89,0.88,3.18
				c0,0.88-0.15,1.62-0.46,2.22c-0.31,0.61-0.73,1.1-1.27,1.48c-0.54,0.38-1.16,0.67-1.87,0.87c-0.7,0.2-1.45,0.33-2.25,0.39
				l-0.4-0.23c1.33,0.02,2.42,0.13,3.28,0.33c0.86,0.2,1.5,0.56,1.92,1.09c0.43,0.52,0.64,1.3,0.64,2.32v4.39h-3.79v-4.13
				c0-0.7-0.13-1.25-0.37-1.64c-0.25-0.39-0.69-0.66-1.33-0.81c-0.64-0.15-1.55-0.23-2.75-0.23h-7.15v6.81H467.57z M471.37,387.01
				h8.72c1.06,0,1.88-0.26,2.44-0.77c0.56-0.51,0.84-1.21,0.84-2.08c0-0.84-0.28-1.47-0.84-1.91c-0.56-0.43-1.37-0.65-2.44-0.65
				h-8.72V387.01z"/>
			<path class="st1" d="M494.91,389.09v4.53h14.22v3.16h-18.01v-18.44h17.99v3.16h-14.2v4.59h11.63v2.99H494.91z"/>
			<path class="st1" d="M511.33,396.78l8.66-18.44h4.11l8.75,18.44h-4.13l-7.58-16.62h1.83l-7.53,16.62H511.33z M515.92,392.77
				v-3.16h12.2v3.16H515.92z"/>
			<path class="st1" d="M531.57,378.34h19.44v3.16h-19.44V378.34z M539.41,381.11h3.79v15.68h-3.79V381.11z"/>
			<path class="st1" d="M554.31,378.34h3.79v18.44h-3.79V378.34z"/>
			<path class="st1" d="M569.53,396.78l-8.15-18.44h4.19l6.98,16.65h-1.31l6.96-16.65h4.13l-8.07,18.44H569.53z"/>
			<path class="st1" d="M588.89,389.09v4.53h14.22v3.16H585.1v-18.44h17.99v3.16h-14.2v4.59h11.63v2.99H588.89z"/>
		</g>
	</g>
</g>
</svg>
