<?xml version="1.0" encoding="utf-8"?>
<!-- Generator: Adobe Illustrator 24.3.0, SVG Export Plug-In . SVG Version: 6.00 Build 0)  -->
<svg version="1.1" id="Layer_1" xmlns="http://www.w3.org/2000/svg" xmlns:xlink="http://www.w3.org/1999/xlink" x="0px" y="0px"
	 viewBox="0 0 800 600" style="enable-background:new 0 0 800 600;" xml:space="preserve">
<style type="text/css">
	.st0{opacity:0.25;fill:#00A651;}
	.st1{fill:#FFFFFF;}
</style>
<g>
	<g>
		<circle class="st0" cx="400.19" cy="300.32" r="162.35"/>
		<g>
			<circle class="st0" cx="562.55" cy="300.32" r="162.35"/>
			<circle class="st0" cx="237.84" cy="300.32" r="162.35"/>
		</g>
	</g>
	<g>
		<path class="st1" d="M103.48,304.04c-0.73,7.83-3.24,14.56-7.52,20.18c-4.28,5.63-10,9.91-17.15,12.84
			c-7.16,2.93-15.38,4.4-24.67,4.4c-10.03,0-19.11-1.83-27.24-5.5c-8.14-3.67-14.58-9.05-19.35-16.14
			c-4.77-7.09-7.16-15.71-7.16-25.87c0-10.15,2.38-18.77,7.16-25.87c4.77-7.09,11.22-12.54,19.35-16.33
			c8.13-3.79,17.21-5.69,27.24-5.69c9.29,0,17.49,1.5,24.58,4.49c7.09,3,12.78,7.24,17.06,12.75c4.28,5.5,6.79,12.17,7.52,20H84.59
			c-2.08-6.48-5.84-11.53-11.28-15.13c-5.44-3.6-11.83-5.41-19.17-5.41c-5.99,0-11.5,1.19-16.51,3.58
			c-5.02,2.39-9.02,5.87-12.02,10.45c-3,4.59-4.49,10.3-4.49,17.16c0,6.73,1.5,12.41,4.49,17.06c3,4.65,7,8.1,12.02,10.37
			c5.01,2.26,10.52,3.39,16.51,3.39c8.07,0,14.7-1.8,19.9-5.41c5.2-3.61,8.77-8.71,10.73-15.32H103.48z"/>
		<path class="st1" d="M162.73,341.47c-10.15,0-19.26-1.83-27.33-5.5c-8.07-3.67-14.43-9.05-19.08-16.14
			c-4.65-7.09-6.97-15.71-6.97-25.87c0-10.03,2.32-18.62,6.97-25.78c4.65-7.16,11.01-12.63,19.08-16.42
			c8.07-3.79,17.18-5.69,27.33-5.69c10.15,0,19.2,1.9,27.15,5.69c7.95,3.79,14.22,9.26,18.8,16.42c4.59,7.16,6.88,15.75,6.88,25.78
			c0,10.15-2.29,18.77-6.88,25.87c-4.59,7.09-10.85,12.47-18.8,16.14C181.93,339.63,172.88,341.47,162.73,341.47z M162.73,324.77
			c5.87,0,11.25-1.16,16.14-3.49c4.89-2.32,8.77-5.81,11.65-10.45c2.87-4.65,4.31-10.27,4.31-16.88c0-6.61-1.44-12.23-4.31-16.88
			c-2.88-4.64-6.73-8.22-11.56-10.73c-4.83-2.5-10.24-3.76-16.23-3.76c-5.99,0-11.44,1.22-16.33,3.67
			c-4.89,2.45-8.84,5.99-11.83,10.64c-3,4.65-4.49,10.34-4.49,17.06c0,6.6,1.47,12.23,4.4,16.88c2.93,4.65,6.88,8.13,11.83,10.45
			C151.27,323.61,156.74,324.77,162.73,324.77z"/>
		<path class="st1" d="M267.11,341.47c-8.44,0-16.11-2.02-23.02-6.06c-6.91-4.03-12.38-9.63-16.42-16.78
			c-4.03-7.16-6.05-15.38-6.05-24.67c0-9.54,1.99-17.89,5.96-25.04c3.97-7.16,9.36-12.75,16.14-16.79
			c6.79-4.03,14.58-6.05,23.39-6.05c7.7,0,14.19,1.25,19.45,3.76c5.26,2.51,9.42,5.93,12.47,10.27c3.06,4.34,5.29,9.39,6.7,15.13
			c1.4,5.75,2.11,11.99,2.11,18.71c0,5.01-0.73,10.3-2.2,15.87c-1.47,5.57-3.76,10.73-6.88,15.5c-3.12,4.77-7.28,8.66-12.47,11.65
			C281.08,339.97,274.69,341.47,267.11,341.47z M273.35,324.59c6.85,0,12.69-1.31,17.52-3.94c4.83-2.63,8.5-6.27,11.01-10.91
			c2.5-4.65,3.76-9.91,3.76-15.78c0-6.48-1.28-12.02-3.85-16.6c-2.57-4.59-6.24-8.16-11.01-10.73c-4.77-2.57-10.58-3.85-17.43-3.85
			c-9.78,0-17.37,2.91-22.75,8.71c-5.38,5.81-8.07,13.3-8.07,22.47c0,5.99,1.31,11.31,3.94,15.96c2.63,4.65,6.27,8.26,10.92,10.82
			C262.03,323.3,267.35,324.59,273.35,324.59z M305.63,211.41h20.54v128.04H307.1c-0.25-2.81-0.55-6.3-0.92-10.46
			c-0.37-4.16-0.55-7.89-0.55-11.19V211.41z"/>
		<path class="st1" d="M421.2,309.36h19.63c-0.98,6.24-3.39,11.77-7.24,16.6c-3.85,4.83-9.08,8.62-15.69,11.37
			c-6.6,2.75-14.49,4.13-23.66,4.13c-10.4,0-19.69-1.93-27.88-5.78c-8.2-3.85-14.62-9.32-19.27-16.42
			c-4.65-7.09-6.97-15.53-6.97-25.31c0-9.66,2.26-18.1,6.79-25.32c4.53-7.21,10.79-12.78,18.8-16.69
			c8.01-3.91,17.27-5.87,27.79-5.87c10.88,0,19.96,1.92,27.24,5.78c7.27,3.86,12.69,9.6,16.23,17.24c3.54,7.65,5.01,17.28,4.4,28.89
			h-80.53c0.61,5.13,2.3,9.75,5.05,13.85c2.75,4.1,6.51,7.28,11.28,9.54c4.77,2.26,10.33,3.39,16.69,3.39
			c7.09,0,13.05-1.4,17.89-4.22C416.58,317.74,419.73,314.01,421.2,309.36z M392.95,262.59c-8.32,0-15.16,2.05-20.54,6.14
			c-5.38,4.1-8.87,9.33-10.45,15.68h58.88c-0.49-6.85-3.24-12.2-8.25-16.05C407.56,264.51,401.02,262.59,392.95,262.59z"/>
		<path class="st1" d="M452.2,248.1h20.36v91.35H452.2V248.1z M511.08,246.08c5.26,0,10.12,0.73,14.58,2.2
			c4.46,1.47,8.32,3.7,11.56,6.7c3.24,3,5.75,6.7,7.52,11.1c1.77,4.4,2.66,9.6,2.66,15.59v57.79h-20.36V285.7
			c0-7.46-1.81-13-5.41-16.6c-3.61-3.6-9.27-5.41-16.97-5.41c-5.87,0-11.22,1.25-16.05,3.76c-4.83,2.51-8.77,5.75-11.83,9.72
			c-3.06,3.97-4.83,8.34-5.32,13.12l-0.18-9.91c0.61-4.53,1.96-8.84,4.03-12.93c2.08-4.1,4.83-7.76,8.26-11.01
			c3.42-3.24,7.46-5.78,12.11-7.61S505.46,246.08,511.08,246.08z"/>
		<g>
			<path class="st1" d="M576.66,259.56h-4.77c-3,0-5.74-1.01-7.98-2.67v82.56h20.54v-82.41
				C582.25,258.61,579.57,259.56,576.66,259.56z"/>
			<path class="st1" d="M562.08,246.08L562.08,246.08c0,5.42,4.39,9.81,9.81,9.81h4.77c5.42,0,9.81-4.39,9.81-9.81v0
				c0-5.42-4.39-9.81-9.81-9.81h-4.77C566.47,236.26,562.08,240.66,562.08,246.08z"/>
		</g>
		<path class="st1" d="M594.18,248.1h25.13l32.28,38.15l45.13,53.2h-24.95l-33.39-40.54L594.18,248.1z M694.34,248.1l-42.93,50.44
			l-32.29,40.91h-24.95l45.13-53.2l30.27-38.15H694.34z"/>
		<path class="st1" d="M697.46,248.1h25.13l32.28,38.15l45.13,53.2h-24.95l-33.39-40.54L697.46,248.1z M797.62,248.1l-42.93,50.44
			l-32.29,40.91h-24.95l45.13-53.2l30.27-38.15H797.62z"/>
	</g>
	<g>
		<path class="st1" d="M186.95,383.64V369.4h8.21c1.91,0,3.36,0.32,4.35,0.96c0.99,0.64,1.49,1.59,1.49,2.85
			c0,0.81-0.2,1.44-0.59,1.9c-0.4,0.46-0.96,0.8-1.68,1.02c-0.73,0.22-1.58,0.36-2.56,0.42l0.09-0.15c0.72,0.01,1.4,0.06,2.04,0.15
			c0.64,0.09,1.2,0.25,1.68,0.48c0.49,0.23,0.87,0.56,1.14,0.98c0.28,0.42,0.42,0.97,0.42,1.64c0,0.88-0.23,1.61-0.7,2.19
			c-0.47,0.58-1.12,1.02-1.96,1.31s-1.81,0.46-2.91,0.48H186.95z M189.88,375.43h5.17c0.92,0,1.64-0.14,2.14-0.4
			c0.5-0.27,0.75-0.74,0.75-1.4c0-0.66-0.25-1.13-0.75-1.4c-0.5-0.27-1.16-0.4-1.98-0.4h-5.33V375.43z M189.88,381.22h5.77
			c0.92,0,1.64-0.15,2.14-0.45c0.5-0.3,0.75-0.78,0.75-1.44c0-0.48-0.15-0.84-0.44-1.06c-0.29-0.22-0.68-0.35-1.17-0.41
			c-0.49-0.05-1.01-0.08-1.56-0.08h-5.48V381.22z"/>
		<path class="st1" d="M212.55,377.7v3.5h10.99v2.44h-13.91V369.4h13.89v2.44h-10.96v3.54h8.98v2.31H212.55z"/>
		<path class="st1" d="M255.94,377.34v-7.95h2.93v8.26c0,0.94-0.14,1.76-0.41,2.47c-0.27,0.71-0.66,1.3-1.16,1.78
			c-0.5,0.48-1.08,0.87-1.75,1.18c-0.67,0.3-1.39,0.52-2.18,0.65c-0.79,0.13-1.61,0.2-2.48,0.2c-0.89,0-1.75-0.07-2.55-0.2
			c-0.81-0.13-1.54-0.35-2.21-0.65s-1.24-0.69-1.73-1.18c-0.48-0.49-0.86-1.08-1.13-1.78c-0.27-0.71-0.41-1.53-0.41-2.47v-8.26h2.93
			v7.95c0,1.11,0.22,1.96,0.66,2.54c0.44,0.58,1.05,0.98,1.82,1.19c0.77,0.21,1.65,0.32,2.63,0.32c0.95,0,1.81-0.1,2.57-0.32
			c0.76-0.21,1.36-0.61,1.8-1.19C255.72,379.31,255.94,378.46,255.94,377.34z"/>
		<path class="st1" d="M282.2,380.73l-0.92,0.37V369.4h2.93v14.24h-2.93l-11.51-11.25l0.92-0.37v11.62h-2.93V369.4h2.93
			L282.2,380.73z"/>
		<path class="st1" d="M293.52,369.4h2.93v14.24h-2.93V369.4z"/>
		<path class="st1" d="M314.21,383.93c-1.89,0-3.51-0.3-4.85-0.89c-1.34-0.59-2.37-1.44-3.08-2.54c-0.71-1.1-1.07-2.42-1.07-3.96
			c0-1.55,0.36-2.88,1.07-3.98c0.71-1.1,1.74-1.95,3.08-2.54c1.34-0.59,2.96-0.89,4.85-0.89c1.91,0,3.53,0.3,4.87,0.89
			c1.33,0.59,2.36,1.44,3.07,2.54c0.71,1.1,1.07,2.43,1.07,3.98c0,1.54-0.36,2.86-1.07,3.96c-0.71,1.1-1.74,1.95-3.07,2.54
			C317.74,383.63,316.12,383.93,314.21,383.93z M314.21,381.39c1.17,0,2.21-0.18,3.09-0.53c0.89-0.35,1.58-0.89,2.09-1.61
			c0.51-0.72,0.76-1.63,0.76-2.73c0-1.1-0.25-2.01-0.76-2.73c-0.51-0.72-1.2-1.26-2.09-1.62c-0.89-0.36-1.92-0.54-3.09-0.54
			c-1.16,0-2.19,0.18-3.1,0.54c-0.91,0.36-1.62,0.9-2.13,1.62c-0.51,0.72-0.77,1.63-0.77,2.73c0,1.1,0.26,2.01,0.77,2.73
			c0.51,0.72,1.22,1.26,2.13,1.61S313.05,381.39,314.21,381.39z M312.78,382.69h2.86v5.35h-2.86V382.69z"/>
		<path class="st1" d="M344.65,377.34v-7.95h2.93v8.26c0,0.94-0.14,1.76-0.41,2.47c-0.27,0.71-0.66,1.3-1.16,1.78
			c-0.5,0.48-1.08,0.87-1.75,1.18s-1.39,0.52-2.18,0.65c-0.79,0.13-1.61,0.2-2.48,0.2c-0.89,0-1.75-0.07-2.55-0.2
			c-0.81-0.13-1.54-0.35-2.21-0.65s-1.24-0.69-1.73-1.18c-0.48-0.49-0.86-1.08-1.13-1.78c-0.27-0.71-0.41-1.53-0.41-2.47v-8.26h2.93
			v7.95c0,1.11,0.22,1.96,0.66,2.54c0.44,0.58,1.05,0.98,1.82,1.19c0.77,0.21,1.65,0.32,2.63,0.32c0.95,0,1.81-0.1,2.57-0.32
			c0.76-0.21,1.36-0.61,1.8-1.19C344.43,379.31,344.65,378.46,344.65,377.34z"/>
		<path class="st1" d="M359.4,377.7v3.5h10.99v2.44h-13.91V369.4h13.89v2.44H359.4v3.54h8.98v2.31H359.4z"/>
		<path class="st1" d="M389.72,383.64V369.4h8.21c1.91,0,3.36,0.32,4.35,0.96c0.99,0.64,1.49,1.59,1.49,2.85
			c0,0.81-0.2,1.44-0.59,1.9c-0.4,0.46-0.96,0.8-1.68,1.02c-0.73,0.22-1.58,0.36-2.56,0.42l0.09-0.15c0.72,0.01,1.4,0.06,2.04,0.15
			c0.64,0.09,1.2,0.25,1.68,0.48c0.49,0.23,0.87,0.56,1.14,0.98c0.28,0.42,0.42,0.97,0.42,1.64c0,0.88-0.23,1.61-0.7,2.19
			c-0.47,0.58-1.12,1.02-1.96,1.31c-0.84,0.29-1.81,0.46-2.91,0.48H389.72z M392.64,375.43h5.17c0.92,0,1.64-0.14,2.14-0.4
			c0.5-0.27,0.75-0.74,0.75-1.4c0-0.66-0.25-1.13-0.75-1.4c-0.5-0.27-1.16-0.4-1.98-0.4h-5.33V375.43z M392.64,381.22h5.77
			c0.92,0,1.64-0.15,2.14-0.45c0.5-0.3,0.75-0.78,0.75-1.44c0-0.48-0.15-0.84-0.44-1.06c-0.29-0.22-0.68-0.35-1.17-0.41
			c-0.49-0.05-1.01-0.08-1.56-0.08h-5.48V381.22z"/>
		<path class="st1" d="M415.32,377.7v3.5h10.99v2.44h-13.91V369.4h13.89v2.44h-10.96v3.54h8.98v2.31H415.32z"/>
		<path class="st1" d="M462.25,378.51c-0.13,1.15-0.54,2.12-1.21,2.93c-0.68,0.81-1.59,1.42-2.75,1.85
			c-1.16,0.42-2.54,0.64-4.14,0.64c-1.34,0-2.56-0.15-3.67-0.46c-1.11-0.31-2.06-0.77-2.86-1.39c-0.8-0.62-1.42-1.38-1.86-2.3
			c-0.44-0.92-0.66-1.99-0.66-3.22c0-1.23,0.22-2.31,0.66-3.24c0.44-0.92,1.06-1.7,1.86-2.32c0.8-0.62,1.75-1.09,2.86-1.41
			c1.11-0.32,2.33-0.47,3.67-0.47c1.6,0,2.98,0.22,4.15,0.66c1.17,0.44,2.09,1.07,2.76,1.88c0.68,0.81,1.07,1.8,1.19,2.96h-2.91
			c-0.19-0.62-0.51-1.15-0.96-1.59c-0.45-0.45-1.02-0.79-1.73-1.02c-0.7-0.24-1.54-0.35-2.51-0.35c-1.2,0-2.26,0.19-3.17,0.56
			c-0.91,0.38-1.61,0.92-2.11,1.65c-0.5,0.73-0.75,1.63-0.75,2.7c0,1.06,0.25,1.94,0.75,2.66c0.5,0.72,1.2,1.26,2.11,1.64
			c0.91,0.37,1.97,0.56,3.17,0.56c0.97,0,1.8-0.11,2.5-0.35c0.7-0.23,1.27-0.57,1.72-1.01c0.45-0.44,0.77-0.96,0.98-1.54H462.25z"/>
		<path class="st1" d="M470.61,383.64V369.4h9.66c1.1,0,2.06,0.15,2.87,0.45c0.82,0.3,1.45,0.77,1.9,1.41
			c0.46,0.64,0.68,1.46,0.68,2.45c0,0.68-0.12,1.25-0.35,1.72s-0.56,0.85-0.98,1.15c-0.42,0.29-0.9,0.52-1.44,0.67
			c-0.54,0.15-1.12,0.25-1.74,0.3l-0.31-0.18c1.03,0.01,1.87,0.1,2.53,0.25c0.66,0.15,1.16,0.43,1.49,0.83c0.33,0.4,0.49,1,0.49,1.8
			v3.39h-2.93v-3.19c0-0.54-0.1-0.96-0.29-1.26c-0.19-0.3-0.53-0.51-1.02-0.63c-0.49-0.12-1.2-0.18-2.12-0.18h-5.53v5.26H470.61z
			 M473.54,376.09h6.74c0.82,0,1.45-0.2,1.88-0.59c0.43-0.4,0.65-0.93,0.65-1.61c0-0.64-0.22-1.14-0.65-1.47
			c-0.43-0.34-1.06-0.51-1.88-0.51h-6.74V376.09z"/>
		<path class="st1" d="M497.23,377.7v3.5h10.99v2.44H494.3V369.4h13.89v2.44h-10.96v3.54h8.98v2.31H497.23z"/>
		<path class="st1" d="M515.41,383.64l6.69-14.24h3.17l6.76,14.24h-3.19l-5.85-12.83h1.41l-5.81,12.83H515.41z M518.96,380.54v-2.44
			h9.42v2.44H518.96z"/>
		<path class="st1" d="M536.55,369.4h15.01v2.44h-15.01V369.4z M542.6,371.53h2.93v12.11h-2.93V371.53z"/>
		<path class="st1" d="M559.61,369.4h2.93v14.24h-2.93V369.4z"/>
		<path class="st1" d="M576.87,383.64l-6.3-14.24h3.24l5.39,12.86h-1.01l5.37-12.86h3.19l-6.23,14.24H576.87z"/>
		<path class="st1" d="M597.32,377.7v3.5h10.99v2.44H594.4V369.4h13.89v2.44h-10.96v3.54h8.98v2.31H597.32z"/>
	</g>
</g>
</svg>
