<?xml version="1.0" encoding="UTF-8"?>
<svg id="Layer_1" data-name="Layer 1" xmlns="http://www.w3.org/2000/svg" viewBox="0 0 715.14 290.4">
  <defs>
    <style>
      .cls-1 {
        fill: #00a651;
        opacity: .25;
      }

      .cls-2 {
        fill: #009444;
      }
    </style>
  </defs>
  <g>
    <circle class="cls-1" cx="357.57" cy="145.2" r="145.2"/>
    <g>
      <circle class="cls-1" cx="502.77" cy="145.2" r="145.2"/>
      <circle class="cls-1" cx="212.37" cy="145.2" r="145.2"/>
    </g>
  </g>
  <rect class="cls-2" x="502.35" y="82.16" width="21.82" height="17.55" rx="8.78" ry="8.78"/>
  <g>
    <path class="cls-2" d="m150.65,225.36v-12.74h7.34c1.7,0,3,.29,3.89.86.89.57,1.33,1.42,1.33,2.55,0,.72-.18,1.29-.53,1.7s-.86.72-1.51.92c-.65.2-1.41.32-2.29.37l.08-.14c.64.01,1.25.06,1.82.14.57.08,1.07.22,1.51.43.43.21.78.5,1.02.87.25.37.37.87.37,1.47,0,.79-.21,1.44-.63,1.96-.42.52-1,.91-1.75,1.17s-1.62.41-2.6.43h-8.05Zm2.62-7.34h4.63c.83,0,1.46-.12,1.91-.36.45-.24.67-.66.67-1.25s-.22-1.01-.67-1.25c-.45-.24-1.04-.36-1.77-.36h-4.77v3.23Zm0,5.18h5.16c.83,0,1.46-.13,1.91-.4.45-.27.67-.7.67-1.29,0-.43-.13-.75-.39-.95-.26-.2-.61-.32-1.04-.37-.43-.04-.9-.07-1.4-.07h-4.9v3.07Z"/>
    <path class="cls-2" d="m174.14,220.04v3.13h9.82v2.19h-12.44v-12.74h12.42v2.19h-9.81v3.17h8.03v2.07h-8.03Z"/>
    <path class="cls-2" d="m214.13,219.73v-7.11h2.62v7.38c0,.84-.12,1.57-.37,2.2-.24.63-.59,1.16-1.03,1.6-.45.43-.97.78-1.57,1.05s-1.25.46-1.95.58c-.7.12-1.44.18-2.22.18s-1.56-.06-2.28-.18c-.72-.12-1.38-.31-1.98-.58s-1.11-.62-1.55-1.05c-.43-.44-.77-.96-1.01-1.6-.24-.63-.37-1.37-.37-2.2v-7.38h2.62v7.11c0,1,.2,1.76.59,2.27.39.52.94.87,1.62,1.06.69.19,1.47.29,2.35.29s1.62-.09,2.29-.29c.68-.19,1.21-.54,1.61-1.06.4-.52.6-1.28.6-2.27Z"/>
    <path class="cls-2" d="m238.21,222.76l-.83.33v-10.47h2.62v12.74h-2.62l-10.3-10.06.83-.33v10.4h-2.62v-12.74h2.62l10.3,10.14Z"/>
    <path class="cls-2" d="m248.92,212.62h2.62v12.74h-2.62v-12.74Z"/>
    <path class="cls-2" d="m268.01,225.61c-1.69,0-3.14-.27-4.34-.8-1.2-.53-2.12-1.29-2.76-2.28-.64-.98-.95-2.16-.95-3.54s.32-2.58.95-3.56c.64-.98,1.56-1.74,2.76-2.27,1.2-.53,2.65-.8,4.34-.8s3.16.27,4.35.8c1.19.53,2.11,1.29,2.75,2.27.64.99.95,2.17.95,3.56s-.32,2.56-.95,3.54c-.64.99-1.55,1.74-2.75,2.28-1.2.53-2.65.8-4.35.8Zm0-2.27c1.05,0,1.97-.16,2.77-.47.79-.31,1.42-.79,1.87-1.44.45-.64.68-1.45.68-2.44s-.23-1.8-.68-2.44c-.45-.64-1.08-1.13-1.87-1.45-.79-.32-1.72-.48-2.77-.48s-1.96.16-2.78.48-1.45.8-1.91,1.45c-.46.64-.69,1.45-.69,2.44s.23,1.8.69,2.44c.46.64,1.09,1.12,1.91,1.44s1.74.47,2.78.47Zm-1.28,1.16h2.56v4.78h-2.56v-4.78Z"/>
    <path class="cls-2" d="m295.83,219.73v-7.11h2.62v7.38c0,.84-.12,1.57-.37,2.2-.24.63-.59,1.16-1.03,1.6-.45.43-.97.78-1.57,1.05s-1.25.46-1.95.58c-.7.12-1.44.18-2.22.18s-1.56-.06-2.28-.18c-.72-.12-1.38-.31-1.98-.58s-1.11-.62-1.55-1.05c-.43-.44-.77-.96-1.01-1.6-.24-.63-.37-1.37-.37-2.2v-7.38h2.62v7.11c0,1,.2,1.76.59,2.27.39.52.94.87,1.62,1.06.69.19,1.47.29,2.35.29s1.62-.09,2.29-.29c.68-.19,1.21-.54,1.61-1.06.4-.52.6-1.28.6-2.27Z"/>
    <path class="cls-2" d="m309.61,220.04v3.13h9.82v2.19h-12.44v-12.74h12.42v2.19h-9.81v3.17h8.03v2.07h-8.03Z"/>
    <path class="cls-2" d="m337.91,225.36v-12.74h7.34c1.7,0,3,.29,3.89.86.89.57,1.33,1.42,1.33,2.55,0,.72-.18,1.29-.53,1.7s-.86.72-1.51.92c-.65.2-1.41.32-2.29.37l.08-.14c.64.01,1.25.06,1.82.14.57.08,1.07.22,1.51.43.43.21.78.5,1.02.87.25.37.37.87.37,1.47,0,.79-.21,1.44-.63,1.96-.42.52-1,.91-1.75,1.17s-1.62.41-2.6.43h-8.05Zm2.62-7.34h4.63c.83,0,1.46-.12,1.91-.36.45-.24.67-.66.67-1.25s-.22-1.01-.67-1.25c-.45-.24-1.04-.36-1.77-.36h-4.77v3.23Zm0,5.18h5.16c.83,0,1.46-.13,1.91-.4.45-.27.67-.7.67-1.29,0-.43-.13-.75-.39-.95-.26-.2-.61-.32-1.04-.37-.43-.04-.9-.07-1.4-.07h-4.9v3.07Z"/>
    <path class="cls-2" d="m361.4,220.04v3.13h9.82v2.19h-12.44v-12.74h12.42v2.19h-9.81v3.17h8.03v2.07h-8.03Z"/>
    <path class="cls-2" d="m404.55,220.77c-.12,1.03-.48,1.9-1.08,2.62-.6.72-1.42,1.27-2.46,1.65-1.04.38-2.27.57-3.7.57-1.2,0-2.29-.14-3.28-.41-.99-.28-1.84-.69-2.56-1.24-.71-.55-1.27-1.24-1.66-2.06s-.59-1.78-.59-2.88.2-2.07.59-2.9c.39-.83.95-1.52,1.66-2.08.72-.56,1.57-.98,2.56-1.26.99-.28,2.08-.42,3.28-.42,1.43,0,2.67.2,3.71.59s1.87.95,2.47,1.69c.6.73.96,1.61,1.06,2.65h-2.6c-.17-.55-.46-1.03-.86-1.43s-.91-.71-1.55-.92c-.63-.21-1.38-.31-2.24-.31-1.08,0-2.02.17-2.84.5-.81.34-1.44.83-1.89,1.48-.45.65-.67,1.45-.67,2.41s.22,1.74.67,2.38c.45.64,1.08,1.13,1.89,1.47.81.33,1.76.5,2.84.5.87,0,1.61-.1,2.23-.31.62-.21,1.14-.51,1.54-.9.4-.39.69-.86.88-1.38h2.6Z"/>
    <path class="cls-2" d="m412.62,225.36v-12.74h8.64c.98,0,1.84.13,2.57.4.73.27,1.3.69,1.7,1.26s.61,1.3.61,2.2c0,.61-.11,1.12-.32,1.53s-.5.76-.87,1.03c-.37.26-.8.46-1.29.6s-1,.23-1.56.27l-.28-.16c.92.01,1.67.09,2.26.23s1.03.38,1.33.75c.29.36.44.9.44,1.61v3.03h-2.62v-2.86c0-.48-.09-.86-.26-1.13-.17-.27-.48-.46-.91-.56-.44-.11-1.07-.16-1.9-.16h-4.94v4.7h-2.62Zm2.62-6.75h6.03c.73,0,1.3-.18,1.68-.53.39-.36.58-.83.58-1.44s-.19-1.02-.58-1.32c-.39-.3-.95-.46-1.68-.46h-6.03v3.74Z"/>
    <path class="cls-2" d="m437.02,220.04v3.13h9.82v2.19h-12.44v-12.74h12.42v2.19h-9.81v3.17h8.03v2.07h-8.03Z"/>
    <path class="cls-2" d="m453.87,225.36l5.99-12.74h2.84l6.04,12.74h-2.86l-5.24-11.48h1.26l-5.2,11.48h-2.84Zm3.17-2.78v-2.19h8.42v2.19h-8.42Z"/>
    <path class="cls-2" d="m473.36,212.62h13.43v2.19h-13.43v-2.19Zm5.41,1.91h2.62v10.83h-2.62v-10.83Z"/>
    <path class="cls-2" d="m539.75,225.36l-5.63-12.74h2.89l4.82,11.5h-.9l4.8-11.5h2.86l-5.57,12.74h-3.27Z"/>
    <path class="cls-2" d="m558.63,220.04v3.13h9.82v2.19h-12.44v-12.74h12.42v2.19h-9.81v3.17h8.03v2.07h-8.03Z"/>
  </g>
  <g>
    <path class="cls-2" d="m169.48,108.66c-5.35-2.56-11.29-4.13-17.72-4.76-2.13-.23-4.33-.33-6.56-.33-1.15,0-2.26.03-3.38.07-36.13,1.15-46.4,31.34-61.07,51.78-7.97,11.09-17.26,19.33-32.68,18.54-2.26,0-4.46-.16-6.56-.56-2.89-.46-5.61-1.28-8.2-2.46-.56-.26-1.12-.52-1.64-.82-3.74-2-6.76-4.82-9.12-8.47-2.66-4.13-4-9.22-4-15.26s1.35-11.22,4-15.32c2.69-4.1,6.27-7.22,10.76-9.35,4.5-2.13,9.42-3.22,14.77-3.22,6.56,0,12.27,1.64,17.13,4.86,4.3,2.82,7.42,6.66,9.38,11.48.13-.23.26-.43.39-.66,3.02-4.86,6.3-10.17,10.17-15.39-3.81-4.82-8.86-8.53-15.09-11.19-6.33-2.69-13.68-4.04-21.99-4.04-8.96,0-17.1,1.71-24.38,5.09-7.25,3.41-13.03,8.27-17.29,14.6-4.27,6.37-6.4,14.08-6.4,23.13s2.13,16.8,6.4,23.13c4.27,6.37,10.04,11.16,17.29,14.44,2.56,1.15,5.22,2.1,7.97,2.82,3.15.89,6.43,1.48,9.84,1.8,2.13.2,4.33.3,6.56.3,3.15,0,6.14-.2,8.93-.56,1.21-.16,2.36-.33,3.51-.56.85-.16,1.71-.33,2.53-.56,1.05-.26,2.07-.52,3.05-.85.39-.1.75-.23,1.12-.36.07,0,.16-.03.23-.07.92-.3,1.8-.62,2.69-.98.19-.08.35-.18.53-.26,13.17-5.23,21.53-14.97,28.41-25.5,10.76-16.51,18.34-34.68,36.65-39.57.46-.13.95-.26,1.44-.36,1.8-.39,3.71-.69,5.74-.85.75-.03,1.51-.07,2.3-.07,2.26,0,4.46.2,6.56.66,2.82.52,5.45,1.44,7.94,2.72,4.33,2.23,7.78,5.45,10.34,9.58,2.59,4.17,3.87,9.19,3.87,15.09s-1.28,10.96-3.87,15.09c-2.56,4.17-6.04,7.28-10.4,9.35-4.4,2.1-9.19,3.12-14.44,3.12s-10.27-1.02-14.7-3.12c-4.43-2.07-7.94-5.18-10.57-9.35-2.63-4.13-3.94-9.19-3.94-15.09,0-.72.03-1.44.07-2.13-1.9,2.92-3.77,6-5.71,9.22-1.9,3.08-3.77,6.23-5.78,9.29-.82,1.28-1.71,2.56-2.59,3.84.53,1.02,1.08,1.97,1.71,2.92,4.13,6.37,9.84,11.16,17.06,14.44,7.22,3.28,15.36,4.92,24.45,4.92s17.16-1.64,24.28-4.92c7.09-3.28,12.7-8.07,16.8-14.44,4.1-6.33,6.17-14.04,6.17-23.13s-2.07-16.64-6.17-23.04c-4.1-6.4-9.71-11.29-16.8-14.7Z"/>
    <path class="cls-2" d="m273,129.38c-1.26-5.02-3.23-9.44-5.91-13.25-2.73-3.88-6.45-6.94-11.15-9.19-4.7-2.24-10.5-3.36-17.39-3.36-7.88,0-14.85,1.8-20.92,5.42-6.07,3.61-10.89,8.61-14.44,15.01-3.55,6.4-5.33,13.87-5.33,22.4s1.81,15.67,5.42,22.07,8.5,11.4,14.68,15.01c6.18,3.61,13.04,5.41,20.59,5.41,6.78,0,12.49-1.34,17.14-4.02,4.65-2.68,8.37-6.15,11.15-10.42,2.79-4.27,4.84-8.89,6.15-13.86v7.14c0,2.95.16,6.29.49,10.01.33,3.72.6,6.84.82,9.35h17.06V52.55h-18.37v76.83Zm-3.36,31.13c-2.24,4.16-5.52,7.41-9.84,9.76-4.32,2.36-9.55,3.53-15.67,3.53-5.36,0-10.12-1.15-14.27-3.44-4.16-2.3-7.41-5.52-9.76-9.68-2.36-4.15-3.53-8.91-3.53-14.27,0-8.2,2.4-14.9,7.22-20.1,4.81-5.19,11.59-7.79,20.34-7.79,6.12,0,11.32,1.15,15.59,3.44,4.27,2.3,7.55,5.5,9.84,9.6,2.3,4.1,3.44,9.05,3.44,14.85,0,5.25-1.12,9.95-3.36,14.11Z"/>
    <path class="cls-2" d="m375.95,108.75c-6.51-3.44-14.63-5.17-24.36-5.17s-17.69,1.75-24.86,5.25c-7.17,3.5-12.77,8.48-16.82,14.93-4.05,6.45-6.07,14-6.07,22.64s2.08,16.3,6.23,22.64c4.16,6.34,9.9,11.24,17.23,14.69,7.33,3.44,15.64,5.17,24.94,5.17,8.2,0,15.26-1.23,21.16-3.69,5.91-2.46,10.58-5.85,14.03-10.17,3.44-4.32,5.6-9.27,6.48-14.85h-17.55c-1.31,4.16-4.13,7.49-8.45,10.01-4.32,2.52-9.66,3.77-16,3.77-5.69,0-10.66-1.01-14.93-3.03-4.27-2.02-7.63-4.86-10.09-8.53-2.46-3.66-3.97-7.79-4.52-12.39h72.03c.54-10.39-.77-19-3.94-25.84-3.17-6.84-8.01-11.98-14.52-15.42Zm-52.58,29.12c1.42-5.69,4.54-10.36,9.35-14.03,4.81-3.66,10.94-5.5,18.37-5.5s13.07,1.72,17.56,5.17c4.48,3.44,6.94,8.23,7.38,14.36h-52.66Z"/>
    <path class="cls-2" d="m480.12,111.54c-2.9-2.68-6.34-4.68-10.34-5.99-3.99-1.31-8.34-1.97-13.04-1.97-5.03,0-9.63.82-13.78,2.46s-7.77,3.91-10.83,6.81c-3.06,2.9-5.52,6.18-7.38,9.84-1.03,2.03-1.83,4.12-2.46,6.26v-23.57h-18.21v81.7h18.21v-48.46c.81-2.55,2.03-4.98,3.77-7.24,2.73-3.55,6.26-6.45,10.58-8.69,4.32-2.24,9.11-3.36,14.36-3.36,6.89,0,11.95,1.62,15.18,4.84,3.22,3.23,4.84,8.18,4.84,14.85v48.07h18.21v-51.68c0-5.36-.79-10.01-2.38-13.95-1.59-3.94-3.83-7.25-6.73-9.93Z"/>
    <polygon class="cls-2" points="620.64 105.39 598.49 105.39 576.74 132.81 553.54 105.39 531.06 105.39 566.16 145.72 531.06 187.09 553.38 187.09 576.42 157.9 600.46 187.09 622.77 187.09 587 144.92 620.64 105.39"/>
    <polygon class="cls-2" points="679.37 144.92 713.01 105.39 690.86 105.39 669.11 132.81 645.91 105.39 623.43 105.39 658.52 145.72 623.43 187.09 645.74 187.09 668.79 157.9 692.83 187.09 715.14 187.09 679.37 144.92"/>
    <path class="cls-2" d="m515.4,105.51h-4.27c-2.5,0-4.9-.44-7.14-1.22v121.07h18.37v-121.01c-2.19.74-4.53,1.16-6.97,1.16Z"/>
  </g>
</svg>